<?xml version="1.0" standalone="no"?>
<!DOCTYPE svg PUBLIC "-//W3C//DTD SVG 20010904//EN"
 "http://www.w3.org/TR/2001/REC-SVG-20010904/DTD/svg10.dtd">
<svg version="1.0" xmlns="http://www.w3.org/2000/svg"
 width="920.000000pt" height="473.000000pt" viewBox="0 0 920.000000 473.000000"
 preserveAspectRatio="xMidYMid meet">

<g transform="translate(0.000000,473.000000) scale(0.100000,-0.100000)"
fill="#000000" stroke="none">
<path d="M5067 4636 c-5 -13 -2 -25 8 -35 11 -12 15 -12 15 -2 0 9 8 11 28 7
20 -5 23 -4 12 4 -8 5 -23 10 -32 10 -9 0 -18 8 -20 18 -3 15 -4 15 -11 -2z"/>
<path d="M4993 4603 c9 -2 23 -2 30 0 6 3 -1 5 -18 5 -16 0 -22 -2 -12 -5z"/>
<path d="M4903 4593 c9 -2 25 -2 35 0 9 3 1 5 -18 5 -19 0 -27 -2 -17 -5z"/>
<path d="M5168 4593 c6 -2 18 -2 25 0 6 3 1 5 -13 5 -14 0 -19 -2 -12 -5z"/>
<path d="M4808 4583 c12 -2 32 -2 45 0 12 2 2 4 -23 4 -25 0 -35 -2 -22 -4z"/>
<path d="M5218 4583 c6 -2 18 -2 25 0 6 3 1 5 -13 5 -14 0 -19 -2 -12 -5z"/>
<path d="M4700 4570 c-25 -5 -97 -13 -160 -19 -158 -16 -322 -41 -340 -53 -13
-8 -13 -9 0 -5 13 4 16 -8 18 -62 1 -36 7 -153 13 -259 5 -106 7 -198 3 -203
-3 -6 -19 -9 -35 -7 -16 3 -25 0 -22 -5 3 -5 -12 -6 -38 -3 -32 5 -40 4 -29
-3 13 -9 13 -11 -2 -11 -12 0 -20 17 -31 63 -9 40 -15 52 -16 34 -2 -45 -17
-23 -30 44 -7 33 -15 58 -18 56 -3 -3 -1 -28 5 -54 6 -26 13 -69 15 -95 4 -43
3 -47 -17 -46 -19 1 -42 -2 -141 -18 -16 -3 -37 -7 -45 -9 -8 -2 -42 -7 -75
-10 -33 -3 -71 -7 -85 -9 -26 -5 -126 -16 -174 -20 -20 -2 -30 3 -36 18 -8 19
-9 19 -9 -4 -1 -43 -34 -35 -49 11 -7 21 -12 46 -12 54 0 8 -7 15 -16 15 -17
0 -17 -7 0 -90 5 -22 2 -25 -22 -26 -25 -1 -105 -10 -162 -19 -14 -2 -47 -6
-75 -9 -27 -4 -63 -9 -78 -12 -15 -3 -44 -7 -65 -9 -31 -3 -86 -11 -125 -18
-14 -3 -44 81 -63 176 -17 78 -21 87 -41 87 -20 0 -22 -4 -17 -32 16 -95 28
-146 44 -194 l19 -53 -35 2 c-19 2 -40 11 -47 22 -13 17 -14 17 -13 -6 1 -21
-4 -24 -39 -26 -22 -1 -59 -5 -83 -9 -29 -4 -48 -2 -59 8 -14 11 -16 11 -11
-4 6 -13 -2 -17 -40 -21 -41 -4 -50 -1 -70 22 -22 24 -23 25 -12 3 6 -13 10
-25 8 -27 -2 -2 -24 -7 -50 -10 -40 -6 -48 -4 -62 17 -18 25 -22 17 -6 -12 9
-16 5 -19 -38 -23 -38 -3 -50 0 -64 16 -10 10 -18 15 -18 10 0 -5 6 -15 13
-22 10 -11 7 -13 -16 -8 -24 4 -27 2 -15 -9 11 -11 43 -10 198 6 228 25 270
24 90 -1 -138 -18 -207 -40 -194 -60 6 -11 161 -7 219 5 11 2 52 7 90 10 39 4
77 9 85 11 8 2 47 6 85 10 39 4 108 13 154 21 46 8 85 13 87 11 4 -3 -208 -49
-548 -119 -60 -12 -108 -26 -108 -30 0 -14 23 -10 327 53 222 46 297 58 307
49 8 -6 24 -35 36 -65 22 -53 49 -78 34 -32 -5 16 1 13 22 -14 34 -43 116
-153 159 -213 38 -54 166 -207 189 -225 13 -11 14 -16 4 -23 -16 -11 41 -5
100 11 23 7 46 9 51 6 5 -3 11 -1 13 4 1 4 13 12 26 16 21 6 22 5 10 -14 -8
-13 -15 -16 -19 -9 -6 9 -25 -21 -99 -157 -19 -35 -20 -29 -2 14 4 10 1 12 -7
6 -10 -6 -11 -3 -1 14 6 12 16 18 22 15 8 -5 9 -1 5 10 -4 9 -3 15 2 12 8 -5
34 44 32 60 -1 12 -30 13 -38 2 -3 -7 -1 -8 5 -4 16 10 15 -5 -2 -26 -12 -17
-26 -15 -26 4 0 5 5 6 12 2 7 -5 8 -3 3 6 -6 10 -12 8 -26 -8 -22 -28 -29 -28
-29 0 0 12 -3 19 -6 16 -3 -4 4 -53 16 -110 11 -56 21 -121 23 -143 1 -22 5
-42 8 -45 4 -3 16 -66 29 -140 34 -211 57 -318 73 -341 15 -21 15 -21 32 10
16 33 10 68 -7 37 -5 -9 -6 -21 -3 -26 6 -10 -8 -14 -17 -4 -3 3 5 28 19 56
13 27 26 48 29 45 3 -3 1 -15 -6 -26 -12 -23 -5 -45 11 -36 15 10 11 -4 -17
-56 l-27 -48 -59 107 c-33 59 -98 166 -144 238 -78 122 -84 135 -89 195 -4 44
-2 58 4 44 8 -16 10 -17 10 -3 1 9 -5 23 -11 30 -7 7 -14 24 -16 38 -3 33 -41
224 -54 274 -7 27 -12 35 -18 26 -6 -9 -11 -3 -18 21 -5 19 -28 61 -51 94
l-43 60 7 -40 c4 -22 21 -89 37 -150 29 -107 69 -307 63 -313 -5 -5 -31 92
-60 218 -14 63 -34 147 -45 185 -15 57 -19 63 -17 31 l2 -39 -110 -24 c-100
-23 -154 -43 -113 -43 9 0 18 -9 21 -20 3 -11 1 -18 -3 -15 -5 3 -11 1 -15 -5
-12 -20 -23 -9 -41 40 -21 59 -28 59 -15 0 12 -52 0 -41 -24 23 -10 26 -20 46
-22 44 -2 -3 1 -16 7 -31 17 -45 13 -59 -10 -39 -11 10 -20 26 -20 37 0 11
-10 50 -22 87 -19 60 -23 66 -32 47 -13 -24 -117 -99 -196 -140 l-55 -29 45 6
c25 4 54 8 65 11 14 3 13 0 -5 -8 -60 -30 -40 -49 59 -54 156 -8 184 -15 199
-49 23 -49 54 -59 189 -59 89 0 127 4 132 13 5 8 18 -22 35 -76 30 -102 35
-111 137 -264 108 -163 200 -312 245 -399 36 -69 80 -131 72 -103 -2 8 38 27
107 52 61 21 165 59 233 84 80 29 125 41 127 33 6 -17 65 -364 67 -395 2 -24
134 -208 289 -401 33 -41 79 -100 101 -130 22 -30 58 -73 79 -95 21 -22 63
-76 93 -120 l55 -80 -22 -19 c-22 -18 -22 -18 6 -2 25 15 27 15 27 -1 0 -15 2
-14 15 4 9 12 38 34 65 49 27 15 47 31 44 35 -3 5 2 6 10 3 16 -6 68 19 152
74 61 40 161 95 344 190 97 50 397 209 515 272 28 15 104 55 170 90 66 34 147
79 180 98 60 36 200 112 373 204 50 27 96 47 101 44 9 -6 44 124 36 132 -3 3
-5 -3 -6 -14 0 -18 -1 -18 -9 1 -8 17 -9 15 -8 -10 4 -85 5 -83 -98 -132 -54
-25 -115 -58 -138 -73 -23 -15 -75 -44 -116 -65 -41 -20 -86 -45 -100 -55 -14
-10 -86 -49 -160 -87 -74 -38 -184 -97 -245 -130 -60 -33 -157 -85 -215 -115
-58 -31 -134 -72 -170 -92 -36 -19 -73 -36 -82 -36 -10 0 -18 -4 -18 -8 0 -4
-15 -14 -32 -22 -18 -7 -37 -15 -41 -18 -5 -2 -1 7 8 22 9 14 15 31 13 38 -4
12 -44 -50 -41 -63 1 -3 -8 -11 -19 -18 -21 -13 -21 -13 0 24 12 20 20 40 18
44 -3 4 15 17 39 29 41 20 45 20 46 4 0 -13 2 -12 9 4 5 12 13 25 19 29 6 3
11 11 11 16 0 6 -5 7 -11 3 -9 -5 -10 18 -5 92 4 54 9 135 11 179 8 167 17
250 26 230 10 -27 10 97 0 150 -7 31 -9 34 -10 13 0 -15 -5 -30 -11 -33 -6 -3
-7 1 -4 10 5 13 2 14 -22 5 -39 -15 -111 -48 -157 -72 -44 -23 -53 -19 -37 14
11 22 10 22 -4 4 -9 -11 -16 -25 -16 -32 0 -6 -10 -14 -22 -18 -18 -4 -20 -8
-11 -17 10 -10 30 -4 91 24 43 20 80 37 82 37 3 0 4 -26 2 -57 -2 -41 1 -64
12 -78 14 -19 15 -15 17 55 1 41 4 62 7 45 2 -16 -1 -109 -7 -205 -7 -96 -13
-206 -15 -243 -2 -38 -10 -74 -16 -80 -10 -9 -11 -9 -6 1 4 6 5 12 3 12 -12 0
-178 -93 -184 -103 -11 -18 -18 27 -14 90 2 32 6 51 11 43 11 -18 49 22 56 60
4 16 11 28 16 27 5 -1 15 7 21 18 7 11 16 23 20 26 4 3 -1 33 -13 65 -23 70
-23 112 2 125 24 13 13 32 -51 94 -34 33 -47 52 -44 66 3 10 9 16 14 14 4 -3
13 4 19 16 10 17 9 20 -1 14 -8 -6 -11 -4 -7 7 4 8 1 15 -7 15 -7 0 -11 -6 -8
-13 3 -9 -2 -12 -14 -10 -13 3 -19 -2 -19 -14 0 -10 4 -16 9 -13 5 3 6 -4 2
-16 -4 -12 -3 -27 2 -34 13 -17 15 -107 2 -107 -6 0 -9 20 -8 48 2 39 -2 53
-19 70 -23 23 -30 48 -10 36 6 -4 8 -3 5 3 -4 6 7 40 23 77 17 36 30 69 30 73
0 9 -72 -113 -106 -179 -26 -51 -25 -68 0 -20 8 15 15 22 16 15 0 -7 7 -10 15
-7 8 4 15 2 15 -3 0 -13 -80 -57 -88 -49 -3 4 13 45 36 91 23 47 40 85 37 85
-3 0 -27 -45 -55 -100 -28 -56 -54 -99 -58 -96 -8 4 -28 -15 -28 -26 1 -3 -3
-10 -8 -15 -5 -5 -6 -3 -2 5 9 15 1 15 -25 1 -15 -8 -24 -7 -37 3 -14 11 -15
11 -9 -5 4 -10 3 -16 -2 -13 -5 3 -12 -1 -15 -10 -4 -9 -9 -14 -12 -11 -3 3
25 65 61 137 64 126 69 133 112 151 52 22 66 24 60 7 -2 -7 -10 -12 -16 -10
-7 1 -10 -2 -6 -8 8 -13 -14 -52 -25 -45 -6 4 -7 -1 -3 -11 4 -11 3 -15 -5
-10 -7 4 -18 -7 -27 -26 -14 -29 -14 -30 0 -14 8 11 15 24 15 30 0 5 3 7 6 4
3 -3 -6 -29 -21 -57 -14 -29 -23 -57 -19 -63 4 -6 19 18 34 53 15 35 42 90 59
121 30 53 39 61 109 93 41 20 82 33 89 31 8 -3 12 -2 9 2 -2 4 127 63 287 131
161 69 301 130 312 136 25 15 250 115 330 147 33 14 66 23 73 20 6 -2 12 3 12
11 0 8 10 27 22 43 l22 29 -22 -19 c-12 -10 -24 -27 -27 -37 -10 -29 -25 -12
-25 27 0 21 8 42 20 54 23 23 27 5 5 -24 -26 -34 -16 -41 14 -12 16 15 32 26
36 24 4 -1 28 22 52 52 l45 55 -46 -50 c-25 -27 -46 -46 -46 -41 0 5 -7 3 -15
-4 -65 -54 80 128 235 295 l84 90 -78 -75 c-42 -41 -109 -112 -148 -158 -39
-45 -73 -80 -76 -78 -7 8 48 74 202 246 115 128 124 140 52 70 -47 -46 -86
-80 -86 -75 0 5 44 54 97 107 54 54 92 98 86 98 -6 0 -60 -53 -120 -117 -160
-173 -205 -219 -201 -206 2 6 52 67 111 135 106 121 107 121 18 28 -50 -52
-91 -91 -91 -86 0 6 12 24 28 40 l27 31 -27 -24 c-43 -37 -33 -12 15 39 23 25
5 9 -40 -37 -46 -46 -83 -78 -83 -72 0 5 -4 8 -9 5 -5 -4 -7 3 -4 14 4 16 9
18 19 10 9 -9 15 -6 23 9 7 13 8 22 1 26 -10 6 -14 -1 -11 -18 1 -5 -3 -6 -9
-2 -8 5 -8 11 0 20 7 8 9 23 5 34 -3 10 -1 22 4 26 7 4 9 -1 5 -12 -3 -10 5
-6 18 11 46 59 91 106 96 102 2 -3 -14 -27 -37 -54 -42 -51 -51 -69 -28 -56 9
5 9 3 -1 -7 -7 -8 -18 -14 -24 -14 -6 0 -13 -7 -15 -15 -4 -13 -3 -13 7 0 10
13 11 12 6 -5 -7 -22 6 -9 103 106 l54 64 -46 -45 c-77 -73 -53 -32 40 70 85
94 85 94 15 25 -66 -63 -97 -81 -54 -31 l17 21 -23 -19 c-24 -21 -52 -30 -52
-16 0 11 30 35 30 24 0 -5 26 19 58 54 l57 64 105 -46 c62 -26 104 -50 103
-58 -1 -7 -4 -24 -7 -38 -5 -19 -2 -17 9 8 8 17 17 32 19 32 2 0 36 -13 75
-30 39 -16 69 -25 67 -21 -3 5 -33 19 -66 31 -100 37 -92 53 45 90 48 12 84
24 82 26 -2 3 -40 -5 -83 -17 -118 -33 -137 -32 -236 9 l-89 36 78 80 c43 44
82 83 87 87 5 4 47 17 93 30 50 13 79 25 72 30 -8 4 4 12 30 19 24 6 45 9 48
7 2 -3 -10 -8 -27 -12 -17 -4 -29 -9 -27 -12 7 -7 129 27 154 43 29 18 37 18
29 -3 -4 -9 -16 -62 -26 -116 -19 -99 -29 -124 -37 -99 -6 15 -39 16 -49 0 -5
-8 -2 -9 11 -4 16 6 16 4 4 -11 -12 -15 -12 -16 6 -10 20 7 20 7 1 -8 -23 -17
-14 -20 15 -5 13 8 19 7 19 0 0 -6 -7 -13 -16 -17 -13 -5 -13 -7 -2 -14 7 -5
9 -9 3 -9 -5 0 -11 -21 -12 -48 0 -26 1 -40 4 -32 2 8 6 21 8 27 3 9 30 -1 81
-29 43 -23 75 -37 71 -32 -3 6 -24 19 -47 29 -22 10 -40 24 -40 32 0 8 -4 12
-9 9 -15 -10 -41 5 -41 24 0 20 76 57 269 130 72 27 141 55 152 60 18 10 19 9
14 -17 l-6 -28 20 24 c12 13 27 21 35 18 9 -4 13 0 12 11 -2 9 -8 18 -14 20
-6 2 -9 11 -6 20 4 12 0 10 -11 -5 l-16 -21 -45 20 c-25 11 -48 17 -51 15 -2
-3 11 -10 31 -17 42 -13 39 -32 -7 -47 -18 -6 -97 -36 -177 -66 -207 -78 -194
-76 -185 -36 4 19 19 44 33 56 25 21 25 22 4 16 -21 -5 -22 -3 -17 23 17 74
26 104 32 104 3 0 43 -23 88 -51 80 -49 84 -50 112 -36 88 46 121 141 77 225
-9 18 -10 28 -3 33 6 3 -4 7 -22 7 -19 1 -55 2 -81 2 -52 2 -133 -30 -156 -62
-16 -21 -35 -23 -54 -4 -8 7 -35 16 -60 20 -40 6 -52 14 -80 49 -30 38 -82 99
-115 133 -7 7 -13 14 -13 17 0 2 53 -14 118 -35 64 -21 122 -38 127 -37 6 0
-55 23 -134 49 -146 50 -191 72 -191 91 0 7 6 7 18 -2 14 -12 14 -10 -2 8 -10
12 -23 21 -29 20 -6 -1 -20 16 -31 38 -12 22 -24 43 -29 46 -4 3 -18 20 -32
39 -14 19 -25 28 -25 21 0 -7 16 -33 36 -59 35 -47 36 -47 12 -50 -34 -5 -42
-17 -23 -36 22 -22 10 -20 -97 9 -50 15 -92 24 -94 23 -2 -2 51 -21 117 -41
66 -21 117 -42 114 -47 -3 -5 0 -12 7 -17 25 -16 77 -102 65 -107 -7 -2 -3 -5
8 -5 17 -1 18 -3 5 -12 -12 -9 -10 -10 8 -6 13 3 21 3 18 -1 -4 -3 4 -12 16
-19 20 -12 20 -13 3 -9 -132 33 -91 15 75 -33 200 -58 236 -72 215 -83 -8 -5
-21 -8 -28 -5 -7 2 -32 -5 -57 -15 -55 -24 -227 -78 -247 -78 -8 0 -67 -21
-131 -46 -64 -25 -144 -55 -179 -67 l-63 -21 -78 33 c-96 41 -443 163 -449
158 -4 -4 55 -27 122 -47 22 -7 45 -16 50 -20 6 -5 77 -34 160 -65 136 -51
181 -72 172 -81 -5 -5 -202 70 -372 141 -181 75 -198 82 -170 64 23 -14 275
-120 437 -182 78 -30 108 -47 108 -59 0 -9 -4 -19 -8 -22 -5 -3 -9 -25 -11
-50 -1 -25 -8 -69 -17 -98 -8 -29 -16 -65 -19 -79 -6 -42 -55 -270 -65 -310
-13 -48 -19 -93 -19 -161 l-1 -57 -37 25 c-47 32 -82 27 -215 -28 -54 -22
-101 -38 -106 -36 -32 12 -359 224 -355 231 6 10 7 10 -103 -27 -155 -52 -274
-99 -269 -106 6 -10 -50 -3 -72 8 -56 31 -49 36 140 97 100 33 189 65 197 72
8 7 -78 -19 -190 -58 -223 -77 -381 -129 -392 -129 -5 0 -8 11 -8 25 0 22 10
27 133 65 271 84 397 130 397 143 0 4 -193 127 -362 232 -19 12 -226 144 -355
228 -100 64 -123 86 -45 42 38 -21 42 -22 22 -5 -14 12 -52 39 -85 60 -74 48
-103 76 -121 115 -8 19 -13 23 -14 13 0 -10 -5 -18 -11 -18 -5 0 -7 -6 -3 -12
4 -7 4 -10 0 -6 -4 3 -20 2 -36 -2 -20 -6 -30 -5 -34 3 -2 7 -5 -3 -5 -20 -1
-19 -6 -33 -13 -33 -10 0 -9 -3 1 -9 9 -6 10 -10 2 -12 -7 -3 -14 -20 -16 -38
-3 -19 -10 -39 -16 -45 -9 -8 -10 -8 -5 2 4 6 2 12 -4 12 -6 0 -13 -15 -17
-32 l-6 -32 -12 34 c-8 24 -19 36 -34 38 -19 3 -22 9 -19 33 3 16 1 29 -4 29
-4 0 -8 -4 -8 -8 0 -5 -14 -8 -30 -7 -17 1 -35 -4 -40 -11 -6 -6 -19 -10 -30
-7 -12 3 -22 -2 -29 -16 -7 -12 -8 -21 -2 -21 5 0 11 6 13 12 4 10 10 10 30 1
14 -6 29 -8 34 -4 5 5 20 5 34 2 17 -5 -11 -13 -93 -25 -65 -11 -120 -23 -123
-28 -6 -9 26 -5 179 22 68 12 97 14 98 6 6 -49 4 -63 -8 -59 -7 3 -10 9 -7 14
3 5 0 17 -6 26 -11 17 -11 17 -6 1 3 -10 1 -18 -5 -18 -6 0 -7 -5 -3 -11 3 -6
-5 -4 -19 6 -15 10 -28 12 -31 6 -4 -5 -15 -8 -26 -6 -12 2 -17 -1 -14 -10 3
-7 0 -16 -7 -21 -7 -4 -10 -3 -6 4 5 6 0 8 -13 5 -11 -3 -20 -10 -20 -17 0 -6
-5 -4 -10 4 -7 11 -10 11 -10 2 0 -7 -4 -10 -10 -7 -5 3 -10 0 -10 -7 0 -8 -3
-9 -8 -3 -9 12 -54 16 -46 4 3 -5 10 -6 16 -3 7 4 8 2 4 -5 -4 -6 -2 -19 6
-29 7 -9 -18 9 -55 41 -38 31 -71 57 -75 57 -23 -1 -34 -21 -31 -58 3 -27 1
-38 -7 -35 -6 2 -14 -7 -18 -22 -4 -14 -20 -37 -36 -52 -32 -28 -31 -43 3 -44
21 0 21 -1 -3 -10 -14 -6 -32 -8 -40 -6 -13 3 -15 -3 -13 -27 2 -28 2 -28 -5
-6 -5 17 -10 21 -16 12 -4 -6 -12 -12 -18 -12 -6 0 -5 7 3 18 7 9 2 7 -12 -6
-14 -12 -26 -28 -27 -35 0 -6 -2 -21 -4 -31 -2 -10 3 -21 10 -23 6 -3 12 3 12
12 0 9 -4 13 -10 10 -6 -3 -7 1 -3 10 5 13 7 14 14 3 7 -10 9 -10 9 0 0 6 8
12 17 12 15 0 14 -2 -3 -16 -15 -12 -16 -16 -5 -21 14 -6 -83 -45 -142 -58
-31 -7 -54 15 -207 200 -46 55 -105 123 -133 152 l-50 52 39 6 c21 3 77 15
123 26 45 11 128 29 183 39 55 11 103 22 107 24 4 3 119 28 257 56 137 28 287
60 334 70 47 10 118 26 159 34 41 9 77 19 80 22 14 14 -32 32 -68 27 l-38 -5
-6 107 c-4 60 -8 156 -9 214 -1 81 -3 95 -8 61 -6 -41 -7 -38 -9 30 0 41 -4
99 -8 128 -5 46 -4 52 11 46 9 -3 14 -10 11 -14 -7 -11 22 -20 42 -13 10 4 14
2 10 -4 -9 -14 18 -24 40 -16 10 4 14 2 10 -4 -5 -7 1 -9 15 -6 16 3 19 2 10
-5 -9 -6 12 -19 75 -42 114 -43 123 -45 103 -31 -13 9 -13 11 0 11 13 0 13 1
0 10 -8 5 -26 7 -40 4 -17 -4 -21 -3 -12 4 10 6 -4 16 -50 32 -35 13 -90 36
-123 50 -33 15 -69 30 -79 34 -29 10 -18 14 79 30 123 20 283 31 270 18 -5 -5
-48 -13 -95 -17 -47 -3 -107 -10 -135 -14 -49 -7 -50 -8 -22 -19 15 -7 39 -15
52 -18 14 -3 25 -10 25 -16 0 -5 4 -7 10 -3 5 3 6 13 3 23 -6 16 -1 11 48 -46
6 -7 18 -11 26 -8 8 3 11 2 8 -3 -3 -5 -1 -12 5 -16 5 -3 10 1 10 9 0 9 7 16
15 16 18 0 20 -20 3 -21 -7 0 -4 -4 6 -8 10 -4 49 -2 85 5 108 21 109 21 113
-33 2 -26 9 -48 16 -51 9 -3 12 14 12 62 0 53 -3 66 -16 66 -8 0 -12 5 -9 10
4 6 11 8 16 5 5 -4 9 12 9 35 0 47 -13 48 170 -8 231 -70 345 -102 354 -99 5
2 -17 11 -50 21 -32 9 -66 21 -74 25 -8 4 -39 14 -67 20 -29 7 -53 18 -53 23
0 6 12 8 28 4 22 -5 24 -4 9 4 -9 6 -26 8 -37 5 -11 -3 -80 10 -155 29 -74 20
-147 36 -163 36 l-27 1 30 14 c35 16 17 17 -55 5z m-30 -30 c-36 -11 -50 -11
-50 0 0 6 17 10 38 9 33 -1 34 -2 12 -9z m28 -45 c-6 -13 -14 -22 -18 -20 -5
3 -10 -2 -14 -10 -3 -8 2 -19 12 -24 9 -5 13 -13 8 -18 -5 -4 -11 -2 -14 6 -4
11 -6 11 -13 0 -7 -10 -8 -6 -5 11 6 38 17 60 26 55 4 -3 10 2 14 10 3 8 8 15
10 15 3 0 1 -11 -6 -25z m31 -17 c-12 -24 -24 -45 -26 -48 -10 -10 9 45 23 68
24 37 26 25 3 -20z m26 -8 c-10 -22 -22 -40 -26 -40 -5 0 1 20 13 45 27 55 38
51 13 -5z m-206 19 c-9 -4 -22 -22 -29 -39 -7 -17 -15 -29 -17 -26 -6 6 27 69
41 78 6 4 13 5 16 2 2 -3 -2 -10 -11 -15z m-128 -12 c-10 -9 -11 -8 -5 6 3 10
9 15 12 12 3 -3 0 -11 -7 -18z m83 -9 c-8 -15 -17 -28 -20 -28 -2 0 0 9 6 20
6 11 9 24 6 29 -3 4 1 8 9 8 12 0 12 -5 -1 -29z m156 28 c0 -11 -19 -15 -25
-6 -3 5 1 10 9 10 9 0 16 -2 16 -4z m-69 -73 c-12 -20 -14 -14 -5 12 4 9 9 14
11 11 3 -2 0 -13 -6 -23z m-331 -520 c0 -12 -8 -24 -17 -27 -51 -15 -459 -96
-472 -94 -9 1 -22 -1 -30 -6 -9 -6 -21 0 -37 20 -13 16 -23 23 -24 16 0 -8 -5
-10 -12 -6 -10 6 -10 4 0 -7 19 -20 14 -39 -10 -39 -13 0 -66 -12 -118 -26
-106 -28 -497 -114 -520 -114 -13 0 -56 59 -48 65 2 1 143 30 313 64 171 35
336 69 368 76 49 11 57 11 57 -1 0 -8 5 -14 10 -14 6 0 10 -8 10 -17 0 -14 2
-15 13 -4 10 10 8 15 -7 27 -11 7 -17 16 -14 19 2 3 121 29 264 58 175 36 261
50 266 43 4 -6 8 -21 8 -33z m2825 -43 c-6 -9 -70 -30 -90 -29 -10 0 72 36 88
38 5 1 6 -3 2 -9z m-3442 -17 c-7 -2 -21 -2 -30 0 -10 3 -4 5 12 5 17 0 24 -2
18 -5z m-65 -10 c-10 -2 -28 -2 -40 0 -13 2 -5 4 17 4 22 1 32 -1 23 -4z m-95
-10 c-7 -2 -21 -2 -30 0 -10 3 -4 5 12 5 17 0 24 -2 18 -5z m-90 -10 c-7 -2
-19 -2 -25 0 -7 3 -2 5 12 5 14 0 19 -2 13 -5z m-90 -10 c-7 -2 -19 -2 -25 0
-7 3 -2 5 12 5 14 0 19 -2 13 -5z m-80 -10 c-7 -2 -21 -2 -30 0 -10 3 -4 5 12
5 17 0 24 -2 18 -5z m477 -3 c0 -5 -2 -10 -4 -10 -3 0 -8 5 -11 10 -3 6 -1 10
4 10 6 0 11 -4 11 -10z m-567 -7 c-7 -2 -21 -2 -30 0 -10 3 -4 5 12 5 17 0 24
-2 18 -5z m-85 -10 c-10 -2 -26 -2 -35 0 -10 3 -2 5 17 5 19 0 27 -2 18 -5z
m-85 -10 c-7 -2 -21 -2 -30 0 -10 3 -4 5 12 5 17 0 24 -2 18 -5z m-90 -10 c-7
-2 -21 -2 -30 0 -10 3 -4 5 12 5 17 0 24 -2 18 -5z m-75 -10 c-10 -2 -28 -2
-40 0 -13 2 -5 4 17 4 22 1 32 -1 23 -4z m-90 -10 c-10 -2 -28 -2 -40 0 -13 2
-5 4 17 4 22 1 32 -1 23 -4z m3929 -78 l-74 -79 -32 14 -32 13 38 41 38 41
-40 -37 c-39 -36 -65 -48 -65 -30 0 9 56 65 62 62 1 -1 10 1 18 4 97 34 156
53 158 51 1 -1 -31 -37 -71 -80z m-4019 68 c-10 -2 -28 -2 -40 0 -13 2 -5 4
17 4 22 1 32 -1 23 -4z m379 -9 c-3 -3 -12 -4 -19 -1 -8 3 -5 6 6 6 11 1 17
-2 13 -5z m1508 -69 l20 -16 -20 10 c-11 5 -29 17 -40 26 l-20 16 20 -10 c11
-5 29 -17 40 -26z m1975 11 c0 -2 -8 -10 -17 -17 -16 -13 -17 -12 -4 4 13 16
21 21 21 13z m-66 -21 c-4 -8 -12 -15 -20 -15 -20 0 -17 18 4 23 9 3 18 5 19
6 1 0 0 -6 -3 -14z m-2094 -9 c0 -3 -4 -8 -10 -11 -5 -3 -10 -1 -10 4 0 6 5
11 10 11 6 0 10 -2 10 -4z m30 -20 c0 -2 -7 -7 -16 -10 -8 -3 -12 -2 -9 4 6
10 25 14 25 6z m2156 -16 c26 -11 44 -23 41 -26 -3 -3 -20 1 -38 10 -18 9 -39
16 -48 15 -9 0 4 -9 29 -20 l45 -20 -24 -20 c-12 -10 -27 -17 -32 -14 -9 6
-77 -76 -122 -148 -17 -26 -32 -46 -33 -44 -2 2 1 19 7 38 5 19 12 42 14 53 5
21 34 56 44 53 10 -3 81 79 81 94 0 7 -18 -5 -40 -26 -22 -21 -40 -35 -40 -30
0 4 -10 0 -22 -11 -13 -10 -18 -12 -11 -5 6 7 9 21 6 30 -3 11 -2 12 4 4 6 -8
21 3 48 37 22 27 41 49 42 50 1 0 23 -9 49 -20z m-86 -3 c0 -2 -10 -12 -22
-23 l-23 -19 19 23 c18 21 26 27 26 19z m307 -88 c14 -5 23 -12 20 -15 -7 -8
-187 67 -187 78 0 4 32 -6 70 -23 39 -16 82 -34 97 -40z m-2289 48 c8 -10 6
-13 -7 -13 -10 0 -18 6 -18 13 0 7 4 13 7 13 4 0 12 -6 18 -13z m72 -37 c0 -5
-9 -6 -20 -3 -11 3 -17 9 -15 14 7 10 35 1 35 -11z m-55 0 c-3 -5 -12 -10 -18
-10 -7 0 -6 4 3 10 19 12 23 12 15 0z m2005 -39 c-12 -17 -23 -31 -25 -31 -8
0 8 35 23 53 24 28 26 11 2 -22z m-2566 -19 c3 -5 -1 -9 -9 -9 -8 0 -12 4 -9
9 3 4 7 8 9 8 2 0 6 -4 9 -8z m-164 -56 c0 -2 -8 -10 -17 -17 -16 -13 -17 -12
-4 4 13 16 21 21 21 13z m2649 -48 c-47 -56 -63 -65 -23 -13 14 19 23 35 19
35 -4 0 -2 6 4 13 6 8 17 14 25 14 10 0 0 -18 -25 -49z m-2369 -10 c0 -4 -5
-8 -11 -8 -5 0 -7 5 -4 10 3 6 -2 10 -11 10 -10 0 -14 3 -11 7 4 3 1 13 -5 22
-7 9 0 5 15 -8 15 -14 27 -28 27 -33z m297 -4 c-3 -3 -12 -4 -19 -1 -8 3 -5 6
6 6 11 1 17 -2 13 -5z m-40 -10 c-3 -3 -12 -4 -19 -1 -8 3 -5 6 6 6 11 1 17
-2 13 -5z m20 -51 c-15 -21 -32 -53 -38 -71 -6 -18 -13 -31 -16 -29 -2 3 5 27
16 55 12 31 17 54 11 57 -6 3 -10 0 -10 -7 0 -7 -12 -35 -25 -63 -29 -59 -33
-84 -10 -65 11 9 15 9 15 1 0 -7 5 -9 10 -6 6 3 10 1 10 -5 0 -7 -6 -10 -12
-8 -7 3 -24 -1 -37 -8 -14 -7 -27 -12 -29 -10 -2 2 8 30 21 62 13 33 22 64 20
71 -7 20 15 50 41 55 19 4 23 1 20 -11 -3 -9 2 -6 12 7 28 38 29 15 1 -25z
m132 0 c53 -37 161 -120 214 -164 5 -4 -28 -19 -74 -34 -78 -26 -83 -27 -109
-11 -36 21 -38 20 -33 -8 4 -18 0 -25 -18 -29 -13 -4 -24 -5 -25 -4 -1 1 -4
30 -8 65 -7 60 -6 62 16 63 22 2 22 2 2 6 -19 3 -22 14 -31 84 -5 43 -7 79 -5
79 3 0 34 -21 71 -47z m1981 22 c-7 -9 -15 -13 -18 -10 -3 2 1 11 8 20 7 9 15
13 18 10 3 -2 -1 -11 -8 -20z m-2775 5 c3 -5 -1 -10 -10 -10 -9 0 -13 5 -10
10 3 6 8 10 10 10 2 0 7 -4 10 -10z m585 -21 c0 -5 -5 -7 -12 -3 -8 5 -9 2 -5
-9 3 -9 1 -30 -5 -47 -10 -29 -11 -30 -25 -13 -14 17 -14 17 -9 -2 6 -20 6
-20 -9 -1 -20 26 -19 13 1 -26 10 -20 11 -28 3 -22 -9 5 -10 2 -6 -10 4 -10 3
-15 -3 -11 -6 3 -10 1 -10 -6 0 -7 -3 -10 -6 -7 -3 4 0 16 6 28 9 17 9 25 0
34 -8 8 -9 6 -4 -8 5 -13 4 -17 -4 -12 -8 5 -10 1 -5 -10 4 -12 3 -15 -5 -10
-8 5 -10 1 -5 -10 4 -12 3 -15 -5 -10 -8 5 -10 2 -5 -9 3 -9 9 -13 12 -8 3 4
16 8 29 9 26 1 19 -7 -20 -24 -31 -13 -29 -15 -33 50 -1 21 1 35 5 33 12 -7
19 20 13 47 -3 16 -2 19 5 10 7 -11 10 -11 15 2 4 9 4 22 1 30 -4 9 3 16 18
19 44 8 68 7 68 -4z m-530 -9 c0 -5 -2 -10 -4 -10 -3 0 -8 5 -11 10 -3 6 -1
10 4 10 6 0 11 -4 11 -10z m437 -20 c4 -12 3 -12 -5 -2 -13 18 -25 -12 -17
-42 4 -14 3 -17 -3 -8 -6 9 -12 1 -21 -28 -6 -22 -16 -38 -21 -35 -6 3 -7 -1
-4 -9 3 -8 1 -23 -5 -33 -8 -14 -10 -15 -11 -3 0 13 -1 13 -10 0 -5 -8 -10
-19 -10 -25 0 -5 5 -3 10 5 8 12 10 12 10 1 0 -9 8 -5 21 10 l21 24 -3 -25
c-1 -14 1 -36 4 -50 3 -14 8 -43 10 -66 l4 -41 -48 -15 c-48 -14 -49 -14 -49
6 0 12 -3 31 -6 42 l-6 22 -51 -19 c-39 -15 -53 -16 -59 -6 -8 13 0 -163 12
-258 4 -33 5 -62 1 -65 -3 -3 -7 -11 -9 -18 -1 -8 -29 -53 -61 -100 -73 -110
-136 -222 -123 -222 5 0 17 18 27 40 11 24 21 36 25 30 5 -8 9 -6 13 5 5 10 3
14 -4 9 -7 -4 -10 -1 -7 7 3 8 10 14 16 14 5 0 14 4 19 9 5 5 2 6 -6 1 -9 -5
-12 -3 -9 6 3 8 11 13 17 11 7 -1 10 2 6 7 -3 6 12 38 33 72 23 36 42 57 46
50 10 -15 -3 -33 -16 -25 -8 5 -9 1 -5 -10 4 -9 3 -15 -2 -12 -4 3 -18 -13
-30 -34 -12 -22 -19 -40 -16 -40 4 0 -7 -24 -24 -54 -17 -29 -31 -56 -31 -60
0 -13 31 -5 36 9 4 8 11 15 18 15 6 0 31 32 55 70 23 39 46 68 51 65 4 -3 24
24 44 60 39 71 49 111 15 58 -22 -35 -32 -43 -22 -18 3 10 0 15 -8 13 -8 -2
-14 5 -14 16 0 13 12 23 39 32 21 8 42 11 47 8 5 -3 9 -24 9 -47 0 -23 7 -69
15 -102 8 -33 14 -67 15 -75 0 -16 -87 -53 -230 -100 -62 -21 -65 -21 -78 -3
-14 17 -14 17 -10 -3 5 -18 -5 -25 -59 -49 -82 -36 -94 -26 -58 45 14 29 22
49 16 45 -6 -3 -11 -1 -11 5 0 6 -5 8 -11 4 -8 -5 -8 -1 0 14 6 11 8 29 5 39
-5 15 -4 15 5 3 6 -8 8 -24 5 -35 -3 -11 10 5 28 35 19 30 39 55 45 55 6 0 15
4 20 9 5 5 2 6 -6 1 -9 -5 -12 -3 -9 6 3 8 11 13 17 11 7 -1 9 2 6 8 -4 6 13
41 37 78 77 116 83 126 71 119 -6 -4 -46 -61 -88 -127 -43 -67 -80 -119 -82
-116 -3 2 1 14 7 26 8 15 8 20 1 16 -16 -10 -13 7 5 30 13 16 15 16 10 2 -7
-25 1 -22 15 3 8 15 8 19 0 15 -16 -10 -13 7 5 30 15 19 16 19 10 -1 l-6 -20
16 20 c24 31 38 59 25 51 -6 -4 -11 -3 -11 3 0 5 4 13 10 16 5 3 15 16 21 28
6 13 -2 8 -20 -13 -35 -41 -40 -33 -10 19 13 22 14 28 4 16 -9 -11 -51 -77
-93 -147 -76 -129 -105 -164 -57 -68 15 29 22 49 16 45 -14 -8 -14 1 -1 26 6
10 8 19 6 19 -3 0 -15 -18 -27 -41 -11 -23 -16 -38 -10 -34 16 9 14 0 -15 -56
-14 -28 -23 -54 -20 -57 3 -3 6 1 7 9 0 9 4 6 10 -6 7 -16 8 -14 4 10 -4 20
-3 26 4 16 7 -11 14 -4 31 28 12 24 24 41 27 38 2 -3 -14 -38 -37 -79 -23 -40
-38 -62 -35 -49 5 15 3 21 -3 17 -12 -7 -26 29 -17 44 4 6 3 16 -2 23 -5 7
-10 26 -11 42 l-1 30 13 -24 c8 -14 12 -32 9 -40 -4 -13 -3 -14 5 -2 6 8 8 21
4 29 -3 10 -1 13 6 8 8 -5 10 -2 5 9 -5 13 -7 14 -14 3 -7 -10 -9 -10 -9 0 0
7 20 52 44 100 24 48 41 93 38 101 -3 8 0 11 6 7 13 -8 41 43 35 62 -3 7 1 11
7 10 7 -2 13 7 15 20 1 12 1 22 -1 22 -5 0 -71 -111 -121 -205 -29 -55 -53
-94 -53 -87 0 14 73 159 121 241 18 30 27 51 20 46 -9 -5 -12 -3 -9 6 3 8 11
13 17 11 7 -1 10 2 6 8 -4 6 1 23 11 38 14 22 14 24 2 14 -25 -20 -32 4 -10
36 29 41 36 60 13 32 -22 -27 -28 -21 -10 12 8 16 8 19 -1 13 -8 -5 -11 -3 -8
6 3 8 10 13 16 12 6 -2 16 7 23 18 8 17 8 20 -1 14 -8 -5 -11 -3 -8 6 3 8 11
13 17 11 7 -1 9 2 6 8 -4 6 1 21 12 32 10 12 13 18 6 15 -27 -17 -140 -193
-129 -204 2 -3 14 14 26 37 12 23 24 39 27 36 3 -3 -2 -17 -11 -30 -8 -14 -14
-31 -13 -38 2 -7 2 -9 -1 -5 -2 5 -15 -9 -28 -30 -26 -42 -30 -58 -12 -47 6 4
8 3 4 -4 -3 -6 -2 -13 4 -17 5 -3 10 -11 10 -17 0 -7 -4 -7 -13 1 -8 6 -17 8
-21 4 -4 -4 -4 1 -1 12 4 11 -5 2 -19 -20 -14 -22 -26 -33 -26 -25 -1 8 -11
-5 -22 -29 -19 -39 -22 -42 -29 -23 -12 31 -19 123 -9 117 4 -3 11 2 14 11 4
9 2 13 -5 8 -7 -4 -10 -1 -7 7 3 8 11 14 18 14 7 0 15 7 17 15 4 13 3 13 -6 0
-14 -20 -14 -7 0 24 7 14 16 23 20 20 5 -3 6 3 2 12 -5 13 -3 15 7 9 8 -5 11
-4 6 3 -4 6 5 34 19 63 15 28 22 48 16 44 -16 -9 -13 3 10 45 14 25 32 41 55
48 36 11 41 5 24 -29 -6 -10 -8 -19 -6 -19 3 0 12 13 21 30 11 21 27 32 58 41
23 6 67 19 97 29 30 10 70 21 89 25 29 6 33 5 28 -9 -18 -42 -16 -48 3 -14 13
25 30 40 48 44 15 3 41 10 57 14 41 12 68 8 72 -10z m220 -23 c-2 -18 -9 -42
-16 -53 -12 -19 -12 -19 -5 1 6 19 11 46 13 73 1 6 3 12 6 12 3 0 4 -15 2 -33z
m-1370 -29 c-3 -8 -6 -5 -6 6 -1 11 2 17 5 13 3 -3 4 -12 1 -19z m3436 -80
c-43 -51 -98 -119 -122 -151 -42 -54 -64 -70 -43 -30 5 10 7 23 5 30 -2 6 1
14 6 18 7 4 8 -1 4 -12 -6 -17 -5 -17 15 1 17 15 19 21 9 37 -8 13 -13 15 -19
6 -4 -7 -8 -8 -8 -4 0 4 7 19 16 32 9 13 13 29 9 35 -3 5 -3 16 2 23 4 6 8 18
8 24 0 7 5 13 10 13 6 1 28 18 50 38 41 39 36 30 -28 -53 l-39 -50 51 55 c28
30 51 50 51 44 0 -6 -11 -21 -25 -34 -15 -14 -23 -30 -20 -39 3 -9 3 -12 -1
-8 -9 8 -54 -31 -54 -47 0 -6 11 3 25 19 13 17 24 25 25 19 0 -6 -11 -21 -25
-34 -14 -13 -25 -28 -25 -34 0 -6 12 3 26 19 80 93 167 185 171 181 2 -2 -31
-46 -74 -98z m-3453 69 c0 -6 -3 -7 -7 -4 -3 4 -12 2 -20 -4 -7 -6 -13 -8 -13
-3 0 4 -6 -1 -14 -12 -14 -18 -15 -18 -24 6 -8 21 -6 26 12 31 28 7 66 -1 66
-14z m240 -44 c0 -21 -3 -24 -9 -14 -5 8 -7 20 -4 28 8 21 13 15 13 -14z m277
-29 c-3 -3 -12 -4 -19 -1 -8 3 -5 6 6 6 11 1 17 -2 13 -5z m79 -58 c-4 -40
-14 -59 -28 -50 -6 4 -8 2 -5 -4 10 -15 -3 -43 -16 -35 -6 4 -8 0 -4 -11 4
-10 3 -15 -3 -11 -5 3 -12 -7 -15 -22 -4 -15 -12 -41 -20 -58 l-14 -30 0 34
c-1 22 16 65 50 127 28 52 52 94 54 94 2 0 2 -15 1 -34z m-336 3 c0 -11 -4
-17 -10 -14 -5 3 -10 1 -10 -6 0 -7 -3 -10 -6 -7 -5 5 16 48 23 48 2 0 3 -9 3
-21z m1571 -27 c-6 -2 -11 -8 -11 -13 0 -6 4 -8 8 -5 5 3 9 -9 9 -27 1 -25 -1
-28 -7 -12 -6 18 -9 17 -24 -13 -9 -17 -19 -32 -22 -32 -2 0 0 9 6 19 13 26
13 34 -2 25 -6 -4 -2 8 10 28 12 19 19 38 16 41 -3 3 0 12 7 20 12 13 14 12
17 -6 2 -12 -1 -23 -7 -25z m26 26 c-3 -8 -6 -5 -6 6 -1 11 2 17 5 13 3 -3 4
-12 1 -19z m-61 -15 c-4 -5 -13 -8 -18 -8 -6 0 -13 -6 -16 -14 -3 -9 0 -11 8
-6 10 6 10 3 2 -11 -12 -22 -66 -29 -57 -7 3 9 0 13 -7 11 -7 -2 -27 -31 -45
-64 -18 -32 -33 -55 -33 -51 0 14 49 104 66 122 16 16 18 16 30 -7 8 -14 13
-17 14 -8 0 13 1 13 11 0 9 -13 10 -13 6 0 -2 8 -10 14 -16 13 -21 -5 -11 18
12 27 27 11 53 13 43 3z m-1316 -33 c-6 -12 -14 -19 -17 -17 -2 3 1 15 7 27 6
12 14 19 17 17 2 -3 -1 -15 -7 -27z m-218 -22 c-6 -6 -7 0 -4 19 5 21 7 23 10
9 2 -10 0 -22 -6 -28z m1367 -15 c-30 -51 -45 -66 -24 -25 9 19 15 36 13 38
-5 5 -113 -185 -126 -221 -6 -16 -11 -23 -11 -15 0 8 8 35 19 59 23 49 24 55
11 46 -5 -3 -12 -1 -16 4 -3 6 3 8 15 6 12 -2 24 3 30 15 13 25 13 27 -5 27
-9 0 -14 -6 -11 -12 2 -6 -2 -12 -9 -12 -10 0 -11 5 -4 18 5 10 9 20 9 23 0 9
-24 2 -33 -9 -5 -6 -7 -3 -3 8 3 11 0 17 -9 17 -8 0 -19 -8 -24 -17 -8 -14
-11 -15 -11 -3 -1 8 -16 -14 -34 -49 -33 -64 -44 -65 -41 -6 0 19 5 29 14 27
9 -2 11 3 7 13 -3 9 -2 14 3 10 5 -3 11 -1 13 4 1 5 12 11 23 13 11 1 23 7 26
12 4 5 21 9 38 10 17 0 31 5 31 10 0 4 7 6 15 2 8 -3 15 -1 15 4 0 7 44 22 72
24 3 1 10 4 14 9 17 17 14 5 -7 -30z m1716 -23 c-10 -11 -20 -18 -23 -15 -3 3
3 14 13 25 10 11 20 18 23 15 3 -3 -3 -14 -13 -25z m-1652 -17 c-4 -11 -3 -14
5 -9 7 4 5 -7 -5 -28 -9 -20 -20 -31 -23 -25 -4 6 -13 -3 -20 -21 -7 -17 -15
-29 -17 -26 -5 4 55 126 62 126 2 0 1 -7 -2 -17z m-1002 -16 c-10 -9 -11 -8
-5 6 3 10 9 15 12 12 3 -3 0 -11 -7 -18z m658 -23 c-13 -14 -25 -20 -27 -15
-2 6 -8 9 -13 5 -5 -3 -9 -3 -9 0 0 5 54 32 69 35 3 1 -6 -11 -20 -25z m230
-39 c-16 -28 -29 -59 -29 -68 0 -9 -9 -21 -20 -27 -14 -8 -20 -8 -20 0 0 18
28 67 55 96 14 15 24 33 21 39 -2 6 2 12 9 12 9 0 4 -17 -16 -52z m461 45 c-8
-5 -22 -9 -30 -9 -10 0 -8 3 5 9 27 12 43 12 25 0z m98 -83 l-1 -42 -4 41 c-3
32 -10 44 -28 52 -18 8 -25 8 -29 -1 -2 -7 -5 -2 -5 10 l-1 22 35 -20 c32 -19
35 -25 33 -62z m-1442 60 c4 -3 -1 -18 -10 -32 -9 -14 -14 -30 -11 -35 4 -6
-9 -36 -28 -68 -19 -31 -50 -86 -68 -122 -30 -60 -33 -63 -40 -40 -17 59 -1
148 24 133 6 -4 8 0 5 9 -4 9 0 15 8 15 10 0 13 -6 8 -16 -30 -73 -44 -157
-18 -108 8 15 12 32 9 37 -3 5 3 27 14 48 16 31 17 42 8 52 -9 10 -9 11 2 5
11 -6 13 -4 8 9 -4 10 -3 15 3 11 6 -3 10 -1 10 5 0 6 5 8 10 5 6 -3 10 -11
10 -16 0 -6 -5 -7 -12 -3 -7 4 -8 3 -4 -4 4 -7 3 -12 -1 -12 -5 0 -9 -10 -10
-22 -2 -16 5 -11 23 20 14 24 22 47 18 54 -11 18 -12 48 -2 42 5 -4 9 0 7 7
-3 27 1 37 16 35 8 -1 17 -5 21 -9z m574 -1 c0 -3 -4 -8 -10 -11 -5 -3 -10 -1
-10 4 0 6 5 11 10 11 6 0 10 -2 10 -4z m25 -276 c83 -90 263 -281 346 -366
l69 -71 -26 -12 c-15 -6 -24 -14 -21 -17 3 -3 14 -1 25 5 19 10 20 7 26 -57
17 -174 26 -365 28 -557 1 -154 3 -187 8 -125 l6 85 2 -86 c1 -47 5 -115 8
-150 l6 -64 -49 70 c-27 39 -72 94 -101 124 -50 52 -70 87 -34 60 15 -11 15
-11 4 1 -7 8 -17 15 -21 15 -14 0 -63 64 -57 74 4 5 1 13 -5 17 -8 5 -9 3 -4
-7 6 -11 5 -12 -5 -2 -8 7 -15 23 -17 35 -3 22 -3 22 23 -3 14 -13 57 -66 95
-116 38 -51 72 -93 75 -93 2 0 -20 34 -51 75 -57 78 -67 97 -37 74 14 -11 13
-9 -2 9 -11 12 -22 20 -24 17 -7 -7 -72 56 -72 69 0 5 16 -6 36 -25 23 -21 11
-2 -30 50 -37 46 -98 125 -136 175 -79 104 -146 181 -131 151 5 -11 23 -33 40
-49 17 -17 31 -34 31 -40 0 -5 -19 8 -42 29 -31 29 -36 31 -18 10 14 -16 30
-34 36 -40 6 -5 13 -14 15 -20 2 -5 12 -9 22 -9 9 1 18 -3 18 -7 1 -5 2 -14 3
-19 0 -6 8 -15 16 -20 8 -5 15 -15 15 -22 0 -7 7 -13 15 -13 8 0 15 -9 15 -20
1 -11 7 -19 14 -17 8 2 11 -3 8 -12 -6 -15 10 -34 28 -34 5 0 11 -6 14 -13 2
-7 -1 -9 -10 -4 -7 5 -2 -6 10 -24 17 -24 21 -35 12 -44 -6 -6 -11 -8 -11 -4
0 13 -2 16 -42 58 -35 37 -73 85 -214 273 -16 23 -30 50 -30 61 -1 18 -45 293
-79 495 -8 47 -22 141 -30 210 -9 69 -18 141 -22 160 -6 33 -1 30 93 -70 54
-58 126 -134 159 -170z m562 239 c-6 -10 -14 -16 -17 -14 -4 2 -16 -14 -27
-36 -14 -28 -23 -37 -29 -28 -4 7 -3 14 4 17 7 2 12 8 12 14 0 15 43 65 57 65
8 0 8 -5 0 -18z m-1577 -43 c0 -5 3 -7 6 -4 3 4 1 16 -6 27 -9 17 -8 21 6 21
13 0 16 -7 11 -34 -3 -19 0 -39 6 -45 6 -6 8 -13 6 -16 -6 -6 -69 88 -69 101
1 12 39 -38 40 -50z m1420 30 c0 -2 -7 -6 -15 -10 -8 -3 -15 -1 -15 4 0 6 7
10 15 10 8 0 15 -2 15 -4z m-121 -47 c-19 -11 -24 -3 -8 14 8 9 16 11 18 5 2
-6 -3 -14 -10 -19z m-218 -6 c-12 -20 -14 -14 -5 12 4 9 9 14 11 11 3 -2 0
-13 -6 -23z m-678 -48 c-3 -9 -8 -14 -10 -11 -3 3 -2 9 2 15 9 16 15 13 8 -4z
m270 -35 c4 -30 3 -38 -3 -25 -8 19 -14 83 -6 74 2 -2 6 -24 9 -49z m431 35
c-4 -8 -8 -15 -10 -15 -2 0 -4 7 -4 15 0 8 4 15 10 15 5 0 7 -7 4 -15z m-766
-120 c-23 -46 -44 -83 -46 -81 -4 5 76 166 83 166 3 0 -14 -38 -37 -85z m397
55 c-22 -10 -42 -17 -44 -14 -9 9 35 33 59 33 22 -1 20 -3 -15 -19z m713 -175
l-1 -80 -7 75 c-4 41 -7 100 -7 130 l0 55 7 -50 c5 -27 8 -86 8 -130z m-957
141 c5 3 9 1 9 -5 0 -15 -18 -23 -22 -10 -2 7 -21 -16 -41 -50 -39 -65 -43
-76 -28 -67 11 7 8 -55 -4 -74 -13 -22 -28 16 -15 40 6 11 8 25 5 31 -4 5 12
42 36 82 23 39 44 66 47 59 2 -7 8 -10 13 -6z m2018 -21 c-15 -8 -129 -55
-255 -106 -126 -50 -233 -94 -239 -97 -7 -3 -7 -1 0 6 6 6 111 52 235 102 124
50 234 95 245 100 32 14 42 10 14 -5z m-1842 -27 c-7 -4 -8 -8 -2 -8 5 0 4 -5
-3 -12 -21 -21 -34 5 -16 31 13 18 18 20 25 10 5 -8 3 -17 -4 -21z m-88 -192
c-29 -49 -36 -46 -8 4 12 22 24 38 26 36 2 -2 -6 -20 -18 -40z m1341 -36 c-8
-5 -19 -10 -25 -10 -5 0 -3 5 5 10 8 5 20 10 25 10 6 0 3 -5 -5 -10z m-50 -20
c-8 -5 -19 -10 -25 -10 -5 0 -3 5 5 10 8 5 20 10 25 10 6 0 3 -5 -5 -10z m-75
-30 c-22 -10 -44 -18 -50 -18 -5 0 8 8 30 19 22 10 45 18 50 18 6 0 -8 -9 -30
-19z m-184 -218 c-42 -84 -80 -149 -85 -145 -4 4 -4 -1 0 -11 6 -15 4 -17 -6
-11 -8 5 -11 4 -7 -2 4 -6 0 -27 -8 -46 -8 -19 -12 -37 -9 -39 2 -3 -2 -20
-10 -39 -15 -34 -15 -33 -15 46 1 55 4 72 9 55 8 -24 8 -24 9 -2 2 34 147 318
173 336 12 9 23 14 24 13 2 -1 -32 -71 -75 -155z m9 112 c0 -4 -22 -45 -49
-93 -28 -48 -59 -107 -70 -131 -11 -25 -20 -37 -20 -28 -1 10 6 34 15 55 45
105 44 101 28 114 -12 9 -13 9 -9 -2 3 -8 -6 -41 -20 -74 -20 -47 -25 -53 -22
-28 2 18 0 30 -4 27 -5 -3 -6 12 -4 31 3 23 1 34 -5 30 -5 -3 -10 -2 -10 4 0
5 4 12 10 16 5 3 6 13 3 21 -5 13 -8 13 -15 2 -8 -10 -9 -10 -5 2 2 9 13 14
27 12 14 -2 20 0 16 7 -5 7 -1 8 9 5 14 -6 13 -10 -6 -30 -17 -18 -20 -27 -11
-34 7 -6 10 -7 8 -4 -3 3 2 13 10 22 7 10 21 26 29 37 16 19 16 19 5 -2 -7
-15 -7 -23 -1 -23 6 0 14 12 17 26 4 14 16 29 28 34 26 11 46 12 46 4z m215
-44 c3 -5 1 -10 -4 -10 -6 0 -11 5 -11 10 0 6 2 10 4 10 3 0 8 -4 11 -10z
m110 -10 c-3 -5 -12 -10 -18 -10 -7 0 -6 4 3 10 19 12 23 12 15 0z m-175 -90
c-8 -5 -19 -10 -25 -10 -5 0 -3 5 5 10 8 5 20 10 25 10 6 0 3 -5 -5 -10z
m-313 -82 c-2 -13 -4 -5 -4 17 -1 22 1 32 4 23 2 -10 2 -28 0 -40z m98 -177
c0 -77 -3 -143 -7 -147 -11 -10 -10 -26 1 -20 5 3 8 -9 7 -27 -2 -18 -7 -31
-14 -30 -15 4 -15 -2 -1 -30 9 -20 9 -21 -4 -4 -14 17 -16 16 -28 -20 -7 -21
-14 -33 -16 -26 -2 6 5 29 15 50 28 56 38 98 13 53 -27 -46 -26 -34 1 26 21
49 36 133 18 104 -5 -8 -8 -22 -5 -30 2 -8 -5 -31 -15 -50 -11 -19 -19 -30
-19 -25 0 6 6 21 14 35 16 28 19 44 6 36 -4 -3 -6 7 -4 22 l4 27 -16 -25 -16
-25 6 25 c4 14 7 33 8 42 1 9 4 15 8 12 4 -2 6 12 4 32 -2 35 23 134 34 134 3
0 6 -63 6 -139z m405 75 c-7 -7 -10 1 -9 25 0 32 1 33 10 10 6 -16 6 -28 -1
-35z m-926 -14 c3 -5 -1 -9 -9 -9 -8 0 -12 4 -9 9 3 4 7 8 9 8 2 0 6 -4 9 -8z
m443 -134 c-3 -8 -6 -5 -6 6 -1 11 2 17 5 13 3 -3 4 -12 1 -19z m170 -60 c-2
-18 -4 -6 -4 27 0 33 2 48 4 33 2 -15 2 -42 0 -60z m-157 2 c0 -5 -4 -10 -10
-10 -5 0 -10 5 -10 10 0 6 5 10 10 10 6 0 10 -4 10 -10z m328 -161 c-12 -10
-24 -16 -27 -14 -5 5 -118 -52 -155 -78 -39 -28 -46 -13 -46 100 0 86 1 91 20
86 11 -3 20 -9 20 -14 0 -8 62 -2 90 8 8 4 17 7 20 8 45 14 90 41 92 54 1 9 4
-18 5 -59 4 -68 2 -76 -19 -91z m-610 115 c-4 -3 -12 5 -18 18 -12 22 -12 22
6 6 10 -10 15 -20 12 -24z m338 -145 c-27 -46 -34 -49 -15 -5 10 20 9 29 -2
43 -13 16 -12 17 4 4 14 -11 17 -11 18 0 4 41 12 56 16 28 2 -15 -6 -43 -21
-70z m504 77 c0 -2 -7 -7 -16 -10 -8 -3 -12 -2 -9 4 6 10 25 14 25 6z m-85
-26 c-3 -5 -11 -10 -16 -10 -6 0 -7 5 -4 10 3 6 11 10 16 10 6 0 7 -4 4 -10z
m59 -28 c-12 -9 -34 -37 -49 -60 -32 -52 -47 -49 -16 3 11 20 16 33 11 30 -6
-4 -20 -24 -31 -47 -11 -22 -23 -38 -25 -35 -3 3 2 20 12 39 16 32 16 33 -2
16 -11 -9 -23 -16 -28 -16 -6 0 -19 -18 -30 -41 -20 -38 -42 -58 -30 -26 4 8
3 15 0 15 -4 0 -12 -13 -17 -30 -6 -16 -15 -30 -20 -30 -5 0 -2 14 6 30 9 17
13 36 9 43 -4 7 -4 9 1 5 4 -4 15 1 24 12 9 11 48 36 86 56 39 21 79 43 89 50
28 19 35 6 10 -14z m-130 -7 c-4 -8 -11 -15 -16 -15 -6 0 -5 6 2 15 7 8 14 15
16 15 2 0 1 -7 -2 -15z m-334 -56 c-11 -25 -30 -40 -30 -24 0 18 33 78 37 67
3 -7 0 -26 -7 -43z m300 37 c0 -3 -4 -8 -10 -11 -5 -3 -10 -1 -10 4 0 6 5 11
10 11 6 0 10 -2 10 -4z m143 -31 c-3 -9 -8 -14 -10 -11 -3 3 -2 9 2 15 9 16
15 13 8 -4z m-499 -92 c-9 -46 -14 -39 -13 18 0 41 2 49 9 32 5 -12 7 -34 4
-50z m64 18 c0 -28 4 -56 8 -63 15 -23 12 -35 -13 -75 -13 -21 -21 -29 -17
-18 15 44 16 66 3 82 -8 9 -9 14 -4 11 6 -3 11 5 11 18 1 14 -2 21 -8 18 -6
-4 -8 2 -3 17 3 13 9 32 11 42 9 30 13 19 12 -32z m172 45 c0 -2 -8 -10 -17
-17 -16 -13 -17 -12 -4 4 13 16 21 21 21 13z m56 -49 c-3 -28 -26 -71 -33 -63
-3 3 2 17 11 32 10 14 15 28 12 31 -2 3 -16 -17 -30 -45 -14 -27 -33 -53 -43
-56 -13 -5 -12 -1 6 18 16 16 24 38 24 58 0 18 2 27 5 20 3 -10 8 -7 19 7 19
27 32 27 29 -2z m-126 9 c0 -2 -7 -9 -15 -16 -13 -11 -14 -10 -9 4 5 14 24 23
24 12z m54 -42 c-3 -27 -10 -39 -24 -39 -5 0 -16 -9 -25 -20 -14 -19 -15 -19
-8 -1 4 13 3 17 -5 12 -6 -3 -13 -2 -17 3 -3 6 4 8 16 6 15 -3 19 0 15 11 -3
8 -2 13 3 10 5 -3 16 5 25 19 21 31 24 31 20 -1z m-77 -69 c4 -4 3 -5 -4 -2
-6 4 -15 -5 -22 -23 -12 -35 -25 -41 -16 -7 4 17 2 16 -10 -6 -9 -16 -19 -26
-22 -23 -3 3 4 21 16 40 20 32 41 40 58 21z m-132 -85 c3 -5 1 -10 -4 -10 -6
0 -11 5 -11 10 0 6 2 10 4 10 3 0 8 -4 11 -10z"/>
<path d="M6423 3558 c-26 -30 -40 -53 -25 -44 12 7 56 66 49 66 -2 0 -13 -10
-24 -22z"/>
<path d="M6365 3434 c-9 -15 -12 -23 -6 -20 11 7 35 46 28 46 -3 0 -12 -12
-22 -26z"/>
<path d="M4380 3049 c0 -11 4 -18 10 -14 5 3 7 12 3 20 -7 21 -13 19 -13 -6z"/>
<path d="M4166 3263 c-4 -11 -3 -28 0 -38 7 -16 8 -16 16 4 4 13 4 30 -1 39
-7 13 -9 12 -15 -5z"/>
<path d="M3971 3214 c-12 -15 -21 -32 -21 -38 0 -6 6 -2 12 9 6 11 18 28 26
38 8 9 12 17 9 17 -3 0 -15 -12 -26 -26z"/>
<path d="M3917 3093 c-15 -37 -25 -68 -23 -70 2 -2 16 26 30 63 15 36 25 68
23 70 -2 2 -16 -26 -30 -63z"/>
<path d="M3881 3093 c-10 -26 -10 -27 4 -9 8 11 15 23 15 28 0 15 -7 8 -19
-19z"/>
<path d="M3592 3028 c-41 -63 -116 -218 -109 -225 2 -2 21 34 41 79 20 46 47
99 60 118 12 19 31 47 40 63 10 15 16 27 13 27 -2 0 -23 -28 -45 -62z"/>
<path d="M3534 2868 c-27 -51 -47 -97 -46 -101 1 -4 -3 -18 -9 -30 -7 -12 -9
-19 -5 -16 15 14 124 239 116 239 -4 0 -30 -42 -56 -92z"/>
<path d="M3550 2840 c-41 -80 -34 -87 9 -9 18 33 31 63 28 66 -3 3 -20 -23
-37 -57z"/>
<path d="M3610 2640 c-6 -11 -8 -20 -6 -20 3 0 10 9 16 20 6 11 8 20 6 20 -3
0 -10 -9 -16 -20z"/>
<path d="M3619 2609 c-9 -17 -8 -20 2 -14 9 6 11 3 6 -8 -9 -24 0 -21 14 4 9
17 8 20 -2 14 -9 -6 -11 -3 -6 8 9 24 0 21 -14 -4z"/>
<path d="M3787 2533 c-106 -173 -158 -277 -127 -258 6 4 8 10 6 14 -5 7 120
232 168 304 10 15 16 27 13 27 -3 0 -30 -39 -60 -87z"/>
<path d="M3947 2613 c-4 -3 -7 -11 -7 -17 0 -6 5 -5 12 2 6 6 9 14 7 17 -3 3
-9 2 -12 -2z"/>
<path d="M3752 2528 c-46 -68 -82 -129 -69 -118 11 10 127 190 122 190 -2 0
-26 -33 -53 -72z"/>
<path d="M3982 2568 c-7 -7 -12 -17 -12 -22 0 -6 -23 -47 -50 -91 -26 -44 -46
-82 -44 -85 3 -3 10 3 15 12 5 10 15 15 22 12 13 -5 63 54 53 63 -3 3 4 23 15
45 11 22 16 37 10 33 -15 -8 -14 8 1 23 6 6 9 14 7 17 -3 2 -11 -1 -17 -7z
m-54 -143 c-6 -14 -13 -23 -15 -21 -5 5 15 46 22 46 3 0 -1 -11 -7 -25z"/>
<path d="M3984 2479 c-11 -19 -15 -69 -5 -69 9 0 25 69 18 77 -3 2 -9 -1 -13
-8z"/>
<path d="M3861 2410 c-18 -33 -28 -60 -24 -60 9 0 65 111 60 117 -2 2 -18 -24
-36 -57z"/>
<path d="M3670 2440 c-6 -11 -8 -20 -6 -20 3 0 10 9 16 20 6 11 8 20 6 20 -3
0 -10 -9 -16 -20z"/>
<path d="M3640 2390 c-6 -11 -8 -20 -6 -20 3 0 10 9 16 20 6 11 8 20 6 20 -3
0 -10 -9 -16 -20z"/>
<path d="M3650 2360 c-11 -22 -18 -40 -15 -40 2 0 14 18 25 40 11 22 18 40 15
40 -2 0 -14 -18 -25 -40z"/>
<path d="M3605 2280 c-3 -5 -1 -10 4 -10 6 0 11 5 11 10 0 6 -2 10 -4 10 -3 0
-8 -4 -11 -10z"/>
<path d="M4757 3003 c-4 -3 -7 -11 -7 -17 0 -6 5 -5 12 2 6 6 9 14 7 17 -3 3
-9 2 -12 -2z"/>
<path d="M4520 2970 c-13 -8 -26 -60 -15 -60 6 0 37 61 33 65 -2 2 -10 0 -18
-5z"/>
<path d="M4476 2951 c-4 -6 -3 -18 2 -27 8 -14 10 -14 15 -2 7 19 -8 44 -17
29z"/>
<path d="M4348 2895 c-7 -15 -14 -21 -18 -15 -4 6 -7 -3 -7 -20 0 -16 1 -29 2
-27 10 10 44 87 40 87 -3 0 -11 -11 -17 -25z"/>
<path d="M4626 2905 c-9 -26 -7 -32 5 -12 6 10 9 21 6 23 -2 3 -7 -2 -11 -11z"/>
<path d="M3542 2685 c-17 -37 -14 -45 4 -12 9 16 14 31 11 33 -2 2 -9 -7 -15
-21z"/>
<path d="M3496 2685 c-9 -26 -7 -32 5 -12 6 10 9 21 6 23 -2 3 -7 -2 -11 -11z"/>
<path d="M4063 2563 c4 -21 16 -121 27 -223 23 -211 30 -251 39 -246 3 2 7
-26 9 -62 1 -47 7 -71 19 -82 15 -13 16 -13 5 0 -9 13 -7 18 8 28 17 10 39
-14 233 -266 238 -309 227 -294 238 -336 9 -35 3 127 -11 309 -5 66 -12 164
-15 217 -4 92 -6 99 -34 125 -15 16 -64 69 -107 118 -139 159 -406 455 -411
455 -3 0 -3 -17 0 -37z m114 -160 c-3 -10 -5 -4 -5 12 0 17 2 24 5 18 2 -7 2
-21 0 -30z m158 -149 c1 -16 4 -50 8 -77 5 -26 5 -46 0 -45 -4 1 -22 -6 -40
-15 -18 -9 -35 -17 -38 -17 -12 0 -25 54 -40 158 -8 59 -17 121 -20 137 -4 28
1 25 63 -41 51 -53 67 -78 67 -100z m-148 89 c-3 -10 -5 -4 -5 12 0 17 2 24 5
18 2 -7 2 -21 0 -30z m21 -133 c0 -16 -3 -10 -9 15 -4 22 -8 54 -7 70 0 22 3
19 9 -15 4 -25 7 -56 7 -70z m215 -51 c-22 -8 -19 -11 -27 26 l-8 30 27 -25
c23 -22 24 -25 8 -31z m-206 -31 c-2 -13 -4 -5 -4 17 -1 22 1 32 4 23 2 -10 2
-28 0 -40z m251 0 c17 -17 15 -45 -5 -53 -12 -4 -24 1 -36 16 -18 22 -18 24
-1 36 22 16 27 16 42 1z m-241 -70 c-3 -7 -5 -2 -5 12 0 14 2 19 5 13 2 -7 2
-19 0 -25z m123 18 c0 -37 22 -225 30 -253 4 -18 7 -33 5 -33 -2 0 -32 37 -67
81 -35 45 -71 92 -81 104 -15 21 -16 25 -2 38 8 9 15 20 15 26 0 6 8 11 18 11
9 0 28 9 42 20 30 23 40 25 40 6z m98 -71 c16 -18 16 -19 0 -6 -22 16 -24 -1
-3 -19 8 -7 15 -24 14 -39 0 -23 -1 -24 -9 -6 -7 16 -9 13 -9 -17 -1 -39 14
-52 22 -20 3 9 5 -2 6 -25 1 -50 21 -69 21 -21 1 28 2 30 11 15 6 -11 9 -30 6
-43 -3 -15 0 -24 9 -24 7 0 14 15 16 36 l3 36 20 -23 c11 -13 13 -18 5 -12
-13 10 -17 5 -26 -33 -12 -52 3 -85 36 -79 13 3 17 -1 13 -11 -3 -8 0 -14 6
-14 6 0 11 8 11 18 0 13 2 14 9 3 5 -7 9 -50 10 -95 1 -44 4 -96 8 -115 9 -50
-6 -36 -102 99 l-84 119 -16 163 c-8 90 -17 172 -20 183 -3 11 2 4 11 -15 9
-19 23 -44 32 -55z"/>
<path d="M4450 1732 c0 -5 8 -16 18 -25 14 -13 19 -14 19 -3 0 7 -9 18 -19 25
-10 6 -18 7 -18 3z"/>
<path d="M4255 1810 c16 -29 137 -190 142 -190 3 0 1 6 -4 13 -6 6 -36 48 -68
92 -58 81 -86 114 -70 85z"/>
<path d="M4661 1754 c0 -11 3 -14 6 -6 3 7 2 16 -1 19 -3 4 -6 -2 -5 -13z"/>
<path d="M4495 1490 c10 -11 20 -20 23 -20 3 0 -3 9 -13 20 -10 11 -20 20 -23
20 -3 0 3 -9 13 -20z"/>
<path d="M4782 2005 c-17 -37 -14 -45 4 -12 9 16 14 31 11 33 -2 2 -9 -7 -15
-21z"/>
<path d="M4796 2163 c-6 -14 -5 -15 5 -6 7 7 10 15 7 18 -3 3 -9 -2 -12 -12z"/>
<path d="M4756 1765 c-9 -26 -7 -32 5 -12 6 10 9 21 6 23 -2 3 -7 -2 -11 -11z"/>
<path d="M5080 1395 c-7 -9 -10 -18 -7 -21 3 -3 10 4 17 15 13 25 8 27 -10 6z"/>
<path d="M4935 1309 c-4 -6 -5 -12 -2 -15 2 -3 7 2 10 11 7 17 1 20 -8 4z"/>
<path d="M5268 4573 c7 -3 16 -2 19 1 4 3 -2 6 -13 5 -11 0 -14 -3 -6 -6z"/>
<path d="M5318 4563 c7 -3 16 -2 19 1 4 3 -2 6 -13 5 -11 0 -14 -3 -6 -6z"/>
<path d="M4828 4553 c7 -3 16 -2 19 1 4 3 -2 6 -13 5 -11 0 -14 -3 -6 -6z"/>
<path d="M5358 4553 c7 -3 16 -2 19 1 4 3 -2 6 -13 5 -11 0 -14 -3 -6 -6z"/>
<path d="M5398 4543 c7 -3 16 -2 19 1 4 3 -2 6 -13 5 -11 0 -14 -3 -6 -6z"/>
<path d="M4905 4530 c11 -5 27 -9 35 -9 9 0 8 4 -5 9 -11 5 -27 9 -35 9 -9 0
-8 -4 5 -9z"/>
<path d="M4968 4513 c7 -3 16 -2 19 1 4 3 -2 6 -13 5 -11 0 -14 -3 -6 -6z"/>
<path d="M5528 4513 c7 -3 16 -2 19 1 4 3 -2 6 -13 5 -11 0 -14 -3 -6 -6z"/>
<path d="M5008 4503 c7 -3 16 -2 19 1 4 3 -2 6 -13 5 -11 0 -14 -3 -6 -6z"/>
<path d="M5568 4503 c7 -3 16 -2 19 1 4 3 -2 6 -13 5 -11 0 -14 -3 -6 -6z"/>
<path d="M6050 4461 c-22 -6 -23 -8 -7 -14 10 -4 27 -2 38 3 35 19 19 25 -31
11z"/>
<path d="M5758 4453 c7 -3 16 -2 19 1 4 3 -2 6 -13 5 -11 0 -14 -3 -6 -6z"/>
<path d="M6748 4452 c-13 -6 11 -36 115 -145 l132 -139 47 12 c36 9 55 9 80 1
23 -8 29 -8 21 0 -6 6 -30 13 -54 16 -39 6 -57 19 -171 127 -124 117 -127 121
-100 127 23 6 21 7 -13 7 -22 0 -47 -2 -57 -6z"/>
<path d="M5798 4443 c7 -3 16 -2 19 1 4 3 -2 6 -13 5 -11 0 -14 -3 -6 -6z"/>
<path d="M5977 4443 c-9 -2 -15 -8 -12 -13 3 -5 12 -7 20 -3 21 7 19 -14 -2
-26 -10 -6 -13 -11 -7 -11 6 0 17 7 24 15 7 8 18 15 26 15 7 0 16 5 19 10 4 7
-3 9 -22 5 -21 -5 -24 -4 -13 4 13 10 13 11 0 10 -8 -1 -23 -3 -33 -6z"/>
<path d="M6109 4444 c-1 -2 -2 -9 -3 -15 0 -6 -10 -17 -20 -25 -29 -21 -12
-17 26 5 17 11 35 18 39 15 12 -7 -2 -43 -20 -47 -14 -4 -14 -5 2 -6 10 -1 22
10 27 25 9 23 15 26 50 22 22 -2 36 0 32 4 -5 5 -25 9 -45 10 -20 1 -34 4 -32
8 2 4 -9 7 -25 8 -17 0 -31 -1 -31 -4z"/>
<path d="M5346 4395 c17 -8 44 -17 60 -20 l29 -7 -25 14 c-14 8 -41 17 -60 21
l-35 6 31 -14z"/>
<path d="M6008 4383 c7 -3 16 -2 19 1 4 3 -2 6 -13 5 -11 0 -14 -3 -6 -6z"/>
<path d="M6186 4375 c-9 -26 -8 -26 32 -23 25 2 37 8 37 18 0 22 -61 26 -69 5z
m64 -5 c0 -5 -15 -10 -32 -10 -25 0 -29 3 -18 10 20 13 50 13 50 0z"/>
<path d="M5405 4354 c-39 -14 -39 -14 -5 -8 44 8 66 8 110 0 28 -5 26 -3 -10
9 -25 8 -47 14 -50 14 -3 -1 -23 -7 -45 -15z"/>
<path d="M5338 4353 c7 -3 16 -2 19 1 4 3 -2 6 -13 5 -11 0 -14 -3 -6 -6z"/>
<path d="M5435 4330 c11 -5 27 -9 35 -9 9 0 8 4 -5 9 -11 5 -27 9 -35 9 -9 0
-8 -4 5 -9z"/>
<path d="M6178 4333 c7 -3 16 -2 19 1 4 3 -2 6 -13 5 -11 0 -14 -3 -6 -6z"/>
<path d="M4630 4304 c62 -28 253 -106 380 -154 47 -18 103 -41 125 -51 22 -10
148 -57 279 -105 132 -47 262 -97 289 -110 27 -14 51 -23 54 -21 2 3 -5 8 -18
12 -17 6 -19 9 -8 17 10 6 7 7 -10 3 -17 -5 -22 -4 -16 5 5 9 4 11 -4 6 -6 -4
-18 -3 -25 3 -7 6 -71 31 -142 55 -167 57 -165 57 -158 67 3 5 -2 6 -10 3 -19
-7 -88 15 -81 26 3 4 -5 6 -17 2 -13 -3 -19 -1 -15 5 4 6 -48 30 -131 59 -75
26 -139 51 -142 55 -3 5 -68 30 -145 58 -77 27 -162 59 -188 70 -69 30 -83 25
-17 -5z"/>
<path d="M5498 4313 c7 -3 16 -2 19 1 4 3 -2 6 -13 5 -11 0 -14 -3 -6 -6z"/>
<path d="M5638 4313 c7 -3 16 -2 19 1 4 3 -2 6 -13 5 -11 0 -14 -3 -6 -6z"/>
<path d="M5538 4303 c7 -3 16 -2 19 1 4 3 -2 6 -13 5 -11 0 -14 -3 -6 -6z"/>
<path d="M5616 4291 c-15 -6 -10 -10 23 -19 29 -9 46 -10 59 -2 13 8 11 9 -13
4 -23 -4 -27 -3 -15 5 12 9 8 10 -15 5 -23 -4 -26 -3 -15 5 17 12 4 13 -24 2z"/>
<path d="M6328 4293 c7 -3 16 -2 19 1 4 3 -2 6 -13 5 -11 0 -14 -3 -6 -6z"/>
<path d="M5778 4273 c7 -3 16 -2 19 1 4 3 -2 6 -13 5 -11 0 -14 -3 -6 -6z"/>
<path d="M6398 4273 c7 -3 16 -2 19 1 4 3 -2 6 -13 5 -11 0 -14 -3 -6 -6z"/>
<path d="M5712 4261 c-10 -6 -7 -10 13 -15 16 -4 32 -3 38 3 7 7 2 8 -13 4
-16 -4 -21 -3 -16 5 8 14 -3 15 -22 3z"/>
<path d="M5782 4241 c-10 -6 -4 -10 18 -15 18 -3 39 -1 48 5 14 9 13 10 -5 6
-13 -3 -26 -1 -29 4 -6 11 -15 11 -32 0z"/>
<path d="M5888 4243 c7 -3 16 -2 19 1 4 3 -2 6 -13 5 -11 0 -14 -3 -6 -6z"/>
<path d="M5860 4220 c-18 -12 -2 -12 25 0 13 6 15 9 5 9 -8 0 -22 -4 -30 -9z"/>
<path d="M5065 4201 c22 -11 47 -20 55 -20 17 0 -34 23 -71 33 -13 3 -6 -3 16
-13z"/>
<path d="M5888 4203 c7 -3 16 -2 19 1 4 3 -2 6 -13 5 -11 0 -14 -3 -6 -6z"/>
<path d="M5928 4193 c7 -3 16 -2 19 1 4 3 -2 6 -13 5 -11 0 -14 -3 -6 -6z"/>
<path d="M5975 4180 c11 -5 27 -9 35 -9 9 0 8 4 -5 9 -11 5 -27 9 -35 9 -9 0
-8 -4 5 -9z"/>
<path d="M6138 4183 c7 -3 16 -2 19 1 4 3 -2 6 -13 5 -11 0 -14 -3 -6 -6z"/>
<path d="M3997 4164 c4 -11 8 -12 13 -4 4 7 13 9 19 6 6 -4 11 -2 11 3 0 6
-11 11 -25 11 -18 0 -23 -4 -18 -16z"/>
<path d="M4576 4020 c2 -91 4 -168 4 -172 0 -5 7 -8 15 -8 8 0 15 -4 15 -8 0
-11 45 -32 66 -32 8 0 13 4 10 9 -3 5 -7 72 -9 148 -2 135 -2 140 18 136 18
-3 17 -2 -2 8 -13 7 -23 21 -23 33 -1 19 -2 19 -13 5 -10 -13 -17 -14 -41 -4
-17 7 -33 21 -37 31 -3 11 -5 -55 -3 -146z m81 43 c-3 -10 -5 -2 -5 17 0 19 2
27 5 18 2 -10 2 -26 0 -35z m13 -80 c0 -25 -2 -44 -4 -42 -8 10 -13 89 -5 89
5 0 9 -21 9 -47z m-5 -143 c3 -5 -1 -10 -9 -10 -8 0 -18 5 -21 10 -3 6 1 10 9
10 8 0 18 -4 21 -10z"/>
<path d="M6178 4173 c7 -3 16 -2 19 1 4 3 -2 6 -13 5 -11 0 -14 -3 -6 -6z"/>
<path d="M5185 4159 c27 -17 187 -80 192 -75 2 2 -38 20 -89 41 -111 45 -129
51 -103 34z"/>
<path d="M6038 4163 c7 -3 16 -2 19 1 4 3 -2 6 -13 5 -11 0 -14 -3 -6 -6z"/>
<path d="M6218 4163 c7 -3 16 -2 19 1 4 3 -2 6 -13 5 -11 0 -14 -3 -6 -6z"/>
<path d="M6078 4153 c7 -3 16 -2 19 1 4 3 -2 6 -13 5 -11 0 -14 -3 -6 -6z"/>
<path d="M6125 4140 c11 -5 27 -9 35 -9 9 0 8 4 -5 9 -11 5 -27 9 -35 9 -9 0
-8 -4 5 -9z"/>
<path d="M6302 4136 c37 -20 139 -48 146 -42 8 9 4 11 -80 34 -89 26 -103 27
-66 8z"/>
<path d="M5771 4039 c-1 -91 2 -108 15 -113 9 -4 19 -4 22 -1 3 3 1 5 -5 5 -6
0 -6 20 0 60 13 78 31 79 25 1 -2 -33 -1 -58 4 -55 4 3 8 27 8 55 0 37 4 49
15 49 17 0 19 -31 6 -97 -5 -24 -5 -43 0 -43 4 0 13 -2 21 -5 10 -4 13 13 14
76 1 51 6 84 14 89 7 4 -17 17 -59 30 -41 14 -72 30 -74 39 -3 9 -5 -32 -6
-90z"/>
<path d="M6250 4105 c41 -14 82 -25 92 -25 9 0 77 -20 151 -45 81 -27 142 -43
152 -38 17 6 16 7 -3 14 -12 5 -30 5 -39 2 -10 -4 -14 -2 -10 4 4 5 -14 15
-41 21 -26 7 -81 21 -122 32 -66 18 -154 39 -230 55 -14 2 9 -6 50 -20z"/>
<path d="M4051 4094 c0 -11 3 -14 6 -6 3 7 2 16 -1 19 -3 4 -6 -2 -5 -13z"/>
<path d="M6468 4093 c7 -3 16 -2 19 1 4 3 -2 6 -13 5 -11 0 -14 -3 -6 -6z"/>
<path d="M6558 4073 c7 -3 16 -2 19 1 4 3 -2 6 -13 5 -11 0 -14 -3 -6 -6z"/>
<path d="M6590 4060 c-15 -5 -18 -8 -8 -9 9 -1 25 -4 35 -7 13 -4 15 -3 4 4
-11 8 -11 10 0 15 21 8 -3 6 -31 -3z"/>
<path d="M7085 4060 c11 -5 27 -9 35 -9 9 0 8 4 -5 9 -11 5 -27 9 -35 9 -9 0
-8 -4 5 -9z"/>
<path d="M4823 3892 c-1 -81 -2 -153 -2 -159 -1 -7 -10 -13 -20 -13 -11 0 -23
-5 -26 -10 -4 -7 7 -9 30 -6 32 4 96 -15 115 -34 3 -3 10 -6 15 -7 6 -1 19 -5
29 -9 14 -5 17 -4 12 4 -4 7 -13 12 -21 12 -24 0 -26 17 -15 146 7 69 8 130 3
135 -4 4 -8 -4 -9 -19 -2 -142 -5 -182 -15 -182 -8 0 -10 31 -4 113 4 61 8
113 10 115 2 2 13 -2 25 -8 12 -6 24 -10 26 -8 3 4 -137 78 -147 78 -2 0 -5
-66 -6 -148z m95 -191 c3 -10 -2 -11 -19 -6 -39 12 -48 27 -15 23 16 -2 31 -9
34 -17z"/>
<path d="M6658 4033 c7 -3 16 -2 19 1 4 3 -2 6 -13 5 -11 0 -14 -3 -6 -6z"/>
<path d="M6660 3989 c-12 -8 -9 -9 9 -4 14 4 21 3 18 -2 -6 -10 183 -73 218
-73 19 0 12 -14 -8 -15 -18 -1 -328 -102 -437 -142 -108 -41 -79 -44 -275 35
-140 58 -267 104 -271 99 -4 -4 157 -67 171 -67 14 0 250 -103 253 -111 4 -9
39 1 217 60 83 27 205 66 273 87 67 20 122 41 122 45 0 5 -12 11 -27 15 -74
16 -180 49 -193 59 -24 20 -54 25 -70 14z"/>
<path d="M5160 3930 c-8 -5 -11 -10 -6 -10 6 0 -2 -12 -16 -27 -14 -16 -34
-41 -44 -58 -10 -16 -23 -33 -28 -36 -17 -13 3 -39 30 -39 17 0 28 6 31 20 8
29 23 14 23 -22 0 -25 -3 -29 -17 -23 -10 4 -32 11 -50 15 -27 6 -30 5 -25 -9
5 -14 2 -14 -22 2 -15 10 -32 17 -39 14 -6 -2 26 -21 72 -42 l83 -39 -5 -50
c-5 -59 -9 -75 -21 -95 -6 -9 -5 -12 2 -7 6 3 13 -2 15 -11 4 -14 5 -12 6 5
l1 22 53 -26 c28 -14 60 -33 69 -41 15 -13 17 -10 24 43 3 31 4 93 1 136 -6
75 -5 79 16 89 l22 10 -22 -5 c-20 -3 -23 0 -23 25 0 23 3 27 18 22 14 -5 14
-3 -2 9 -20 16 -18 26 11 68 14 20 14 22 2 13 -13 -10 -20 -9 -38 8 -12 11
-34 24 -49 29 -15 4 -34 11 -42 14 -8 3 -22 1 -30 -4z m37 -26 c-3 -3 -12 -4
-19 -1 -8 3 -5 6 6 6 11 1 17 -2 13 -5z m57 -49 c-4 -8 -12 -11 -22 -7 -16 6
-15 7 1 10 9 2 14 8 11 14 -4 7 -2 8 4 4 6 -4 9 -13 6 -21z m31 -11 c-9 -9
-18 -14 -21 -11 -9 9 6 27 22 27 13 0 13 -2 -1 -16z m-161 -35 c-13 -8 -21
-19 -17 -24 5 -4 2 -5 -4 -1 -10 6 -10 14 2 37 13 24 18 27 29 17 11 -11 10
-16 -10 -29z m137 -32 c-10 -9 -11 -8 -5 6 3 10 9 15 12 12 3 -3 0 -11 -7 -18z
m16 -119 c-2 -13 -4 -3 -4 22 0 25 2 35 4 23 2 -13 2 -33 0 -45z m-127 42 c0
-5 -7 -7 -15 -4 -8 4 -15 8 -15 10 0 2 7 4 15 4 8 0 15 -4 15 -10z m137 -152
c-3 -7 -5 -2 -5 12 0 14 2 19 5 13 2 -7 2 -19 0 -25z m-43 -9 c13 -6 27 -20
29 -30 6 -24 7 -24 -48 3 -30 15 -41 25 -32 30 16 10 22 10 51 -3z"/>
<path d="M2267 3790 c3 -11 9 -20 13 -20 5 0 6 9 3 20 -3 11 -9 20 -13 20 -5
0 -6 -9 -3 -20z"/>
<path d="M5547 3783 c-10 -9 -9 -83 1 -83 4 0 8 20 8 45 2 47 1 49 -9 38z"/>
<path d="M5677 3712 c107 -44 113 -49 114 -77 l2 -30 4 28 c4 23 8 27 26 22
22 -5 22 -5 0 6 -13 7 -24 21 -24 33 -1 17 -2 18 -6 4 -2 -10 -6 -18 -8 -18
-1 0 -46 18 -99 40 -53 22 -102 40 -108 40 -7 0 38 -22 99 -48z"/>
<path d="M5570 3672 c-1 -50 -10 -217 -15 -247 -2 -16 -7 -72 -11 -122 -6 -86
-14 -108 -29 -83 -3 6 -12 10 -18 9 -9 0 -9 -2 0 -5 7 -3 9 -12 6 -20 -4 -10
3 -14 22 -14 27 0 125 -49 125 -62 0 -5 6 -8 13 -8 7 0 30 -12 50 -26 21 -14
41 -24 43 -21 3 2 -7 12 -21 21 -14 9 -23 21 -20 26 4 6 -3 10 -15 10 -25 0
-60 17 -60 30 0 5 7 15 15 24 14 13 13 16 -6 27 -23 12 -39 0 -39 -29 0 -7 -4
-11 -10 -7 -6 4 -6 15 0 30 8 20 6 25 -6 25 -10 0 -14 -6 -11 -14 4 -10 0 -12
-14 -9 -15 4 -19 14 -19 44 0 22 4 39 10 39 5 0 48 -18 95 -39 81 -38 106 -43
68 -16 -16 12 -16 21 0 156 9 79 17 161 17 182 0 41 1 42 33 26 22 -10 22 -10
0 10 -13 10 -23 27 -23 38 -1 17 -1 17 -11 1 -9 -16 -13 -16 -54 4 -25 12 -45
26 -45 31 0 4 -4 6 -9 3 -5 -4 -21 -2 -35 4 -24 9 -26 7 -26 -18z m155 -136
c-9 -111 -13 -123 -43 -136 l-27 -10 28 5 c23 5 27 2 27 -18 0 -32 -8 -38 -36
-25 -28 13 -28 8 -13 164 l12 122 30 -10 29 -11 -7 -81z m-60 -223 c25 -12 35
-23 35 -40 0 -29 -1 -28 -75 6 -58 28 -59 29 -35 39 34 14 34 14 75 -5z m-34
-140 c-8 -15 -10 -15 -11 -2 0 17 10 32 18 25 2 -3 -1 -13 -7 -23z"/>
<path d="M7205 3690 c-3 -6 1 -7 9 -4 18 7 21 14 7 14 -6 0 -13 -4 -16 -10z"/>
<path d="M4167 3673 c-11 -10 -8 -43 3 -43 6 0 10 4 10 9 0 5 3 16 6 25 6 16
-7 22 -19 9z"/>
<path d="M7118 3663 c-30 -36 -32 -46 -7 -32 13 7 30 15 38 19 8 3 17 12 19
18 6 19 -33 14 -50 -5z m37 -3 c-3 -5 -11 -10 -16 -10 -6 0 -7 5 -4 10 3 6 11
10 16 10 6 0 7 -4 4 -10z"/>
<path d="M3942 3642 c-22 -19 -22 -19 -2 -37 19 -18 20 -17 20 5 0 22 1 22 13
6 12 -16 14 -16 25 9 15 32 9 43 -12 26 -10 -8 -15 -9 -18 -1 -2 7 -12 4 -26
-8z"/>
<path d="M3892 3628 c-13 -13 -16 -38 -4 -38 13 0 38 20 25 20 -7 0 -10 7 -7
15 7 18 2 19 -14 3z"/>
<path d="M3589 3593 l-1 -28 -8 25 c-6 22 -8 23 -15 8 -4 -10 -11 -18 -16 -18
-4 0 -6 8 -2 18 6 16 5 16 -14 0 -11 -10 -27 -18 -35 -18 -9 0 -19 -6 -21 -12
-3 -7 -6 -4 -6 7 -1 14 -4 16 -12 8 -6 -6 -19 -9 -28 -6 -9 4 -13 3 -9 -2 4
-4 0 -14 -10 -21 -14 -10 -15 -15 -4 -25 10 -10 12 -10 12 0 0 7 5 9 10 6 6
-3 10 -2 10 2 0 5 8 10 18 11 9 1 40 4 67 6 84 8 97 14 86 35 -6 10 -7 21 -4
25 3 3 1 6 -5 6 -7 0 -12 -12 -13 -27z"/>
<path d="M5839 3588 c-13 -32 -14 -37 -17 -121 -2 -42 -4 -48 -21 -42 -12 3
-21 0 -25 -11 -8 -20 1 -34 20 -34 9 0 14 -6 11 -12 -2 -7 -11 -12 -21 -10
-21 4 -21 -15 2 -29 14 -8 16 -22 14 -66 -4 -53 -5 -55 -30 -49 -26 5 -27 5
-4 -6 22 -11 23 -15 18 -102 l-5 -91 10 80 c6 44 12 87 15 95 3 8 7 53 9 99 6
117 26 282 37 304 5 10 8 21 5 23 -2 3 -10 -10 -18 -28z m-34 -196 c-3 -3 -11
0 -18 7 -9 10 -8 11 6 5 10 -3 15 -9 12 -12z"/>
<path d="M3634 3599 c-3 -6 -1 -16 5 -22 8 -8 11 -5 11 11 0 24 -5 28 -16 11z"/>
<path d="M3360 3539 c-14 -25 -7 -34 17 -24 13 5 14 9 5 12 -10 4 -10 8 -1 19
8 10 8 14 1 14 -6 0 -16 -9 -22 -21z"/>
<path d="M3541 3525 c-35 -13 -85 -29 -112 -35 -27 -7 -49 -15 -49 -19 0 -4
-9 -17 -21 -30 -12 -12 -18 -25 -15 -29 4 -3 19 8 34 25 21 24 50 38 130 62
56 18 102 36 102 41 0 6 -1 9 -2 9 -2 -1 -32 -12 -67 -24z"/>
<path d="M6910 3505 c-47 -19 -94 -32 -105 -29 -18 4 -18 4 -2 -6 32 -20 89
-41 82 -31 -3 6 -12 11 -20 11 -8 0 -16 4 -20 9 -3 5 32 24 77 41 46 18 85 34
87 36 11 11 -22 0 -99 -31z"/>
<path d="M3011 3474 c0 -11 3 -14 6 -6 3 7 2 16 -1 19 -3 4 -6 -2 -5 -13z"/>
<path d="M7517 3475 c-48 -18 -129 -77 -151 -110 l-16 -24 72 -41 c71 -39 72
-40 38 -40 -106 -1 -248 -134 -287 -269 -10 -37 -12 -39 -10 -13 3 25 -1 36
-17 45 -12 6 -24 10 -28 9 -16 -4 -7 46 15 91 13 25 20 44 14 40 -5 -3 -22
-33 -38 -67 -15 -33 -28 -55 -29 -48 0 7 -4 10 -10 7 -5 -3 -10 0 -10 7 0 10
-3 9 -11 -2 -16 -23 -2 66 17 101 8 16 12 29 9 29 -8 0 -45 -78 -45 -95 0 -20
-16 -19 -24 1 -3 8 -10 12 -16 9 -5 -3 -10 -1 -10 5 0 6 -5 8 -11 4 -9 -5 -10
6 -7 41 4 32 3 43 -4 34 -11 -16 -11 -18 27 120 14 51 24 95 21 98 -2 2 -9
-11 -14 -29 -24 -74 -155 -568 -171 -643 -6 -27 -21 -88 -32 -134 -11 -46 -18
-85 -16 -87 5 -5 33 95 42 151 21 119 85 329 85 278 0 -13 220 -161 250 -169
3 0 12 -3 20 -6 106 -37 192 -45 227 -23 31 21 31 62 1 68 -13 2 0 5 29 6 62
1 94 14 150 58 40 32 93 119 93 153 0 9 -17 41 -38 70 l-37 54 40 41 c71 71
104 171 75 226 -17 30 -86 69 -122 68 -18 0 -50 -7 -71 -14z m23 -41 c0 -2 -9
0 -20 6 -11 6 -20 13 -20 16 0 2 9 0 20 -6 11 -6 20 -13 20 -16z m-45 -6 c0
-6 6 -13 14 -16 8 -3 11 0 7 6 -3 6 12 3 34 -6 l40 -17 -30 -9 c-17 -5 -52
-27 -78 -49 -37 -32 -41 -34 -18 -9 17 18 26 32 22 32 -5 0 -3 6 3 13 11 14 5
27 -11 27 -5 0 -7 -4 -3 -9 3 -5 1 -12 -5 -16 -6 -4 -7 -12 -4 -18 4 -7 3 -9
-1 -4 -5 4 -18 -1 -29 -10 -21 -18 -21 -18 -2 5 11 12 16 22 12 22 -4 0 -4 6
1 13 4 6 8 21 8 32 0 14 6 19 19 17 12 -2 16 1 10 10 -4 8 -3 10 2 5 5 -5 9
-14 9 -19z m-59 -23 c-3 -20 -22 -38 -42 -41 -12 -2 -8 6 12 27 32 34 33 34
30 14z m64 -165 c11 -7 7 -10 -19 -10 -80 0 -194 -89 -245 -191 -17 -34 -26
-45 -26 -32 0 120 207 287 290 233z m25 -30 c4 -6 -7 -10 -25 -10 -71 0 -169
-76 -220 -170 -22 -40 -30 -49 -30 -32 0 62 72 156 152 196 53 26 112 34 123
16z m-5 -32 c-14 -5 -39 -16 -57 -24 -70 -29 -142 -114 -169 -197 l-14 -42 6
50 c9 66 33 113 84 159 51 46 93 65 140 65 34 0 34 -1 10 -11z m-4 -43 c-92
-37 -168 -125 -187 -214 -6 -25 -6 -17 -3 24 6 66 25 103 76 151 46 44 86 63
133 63 l40 1 -59 -25z m37 -22 c-93 -32 -191 -161 -181 -235 3 -16 1 -25 -4
-20 -15 15 -11 97 6 134 20 41 78 100 121 122 17 9 46 16 65 15 l35 -1 -42
-15z m72 -23 c4 -6 -8 -10 -28 -10 -37 0 -99 -39 -136 -86 -16 -20 -25 -24
-33 -16 -14 14 20 58 74 95 42 28 110 37 123 17z m-655 -36 c0 -2 -9 0 -20 6
-11 6 -20 13 -20 16 0 2 9 0 20 -6 11 -6 20 -13 20 -16z m90 -61 c0 -7 -61 31
-73 46 -7 8 7 2 31 -14 23 -15 42 -30 42 -32z m74 -52 c-2 -3 -12 3 -22 13
-16 17 -16 18 5 5 12 -7 20 -15 17 -18z m113 -3 c-3 -7 -5 -2 -5 12 0 14 2 19
5 13 2 -7 2 -19 0 -25z"/>
<path d="M7463 3415 c0 -8 4 -12 8 -9 5 2 17 -1 28 -8 18 -11 18 -13 3 -25 -9
-7 -1 -5 19 4 27 13 33 20 23 26 -8 4 -18 5 -24 2 -5 -3 -20 1 -33 10 -20 13
-24 13 -24 0z"/>
<path d="M7409 3383 c-13 -16 -12 -17 4 -4 16 13 21 21 13 21 -2 0 -10 -8 -17
-17z"/>
<path d="M3021 3434 c0 -11 3 -14 6 -6 3 7 2 16 -1 19 -3 4 -6 -2 -5 -13z"/>
<path d="M7011 3434 c0 -11 3 -14 6 -6 3 7 2 16 -1 19 -3 4 -6 -2 -5 -13z"/>
<path d="M2256 3400 c10 -38 32 -87 32 -70 0 8 -8 33 -19 55 -10 22 -16 29
-13 15z"/>
<path d="M3031 3394 c0 -11 3 -14 6 -6 3 7 2 16 -1 19 -3 4 -6 -2 -5 -13z"/>
<path d="M3041 3354 c0 -11 3 -14 6 -6 3 7 2 16 -1 19 -3 4 -6 -2 -5 -13z"/>
<path d="M7105 3340 c-3 -6 1 -7 9 -4 18 7 21 14 7 14 -6 0 -13 -4 -16 -10z"/>
<path d="M2307 3256 c-3 -8 -2 -18 3 -21 13 -8 20 9 11 24 -6 10 -10 9 -14 -3z"/>
<path d="M2344 3246 c0 -14 7 -26 14 -26 10 0 10 5 1 23 -16 31 -17 31 -15 3z"/>
<path d="M2374 3257 c3 -10 6 -28 6 -40 0 -15 3 -18 11 -10 8 8 6 19 -6 39 -9
16 -14 21 -11 11z"/>
<path d="M3534 3250 c7 -24 6 -24 -8 -6 -9 11 -16 15 -16 9 0 -7 5 -15 10 -18
6 -4 8 -10 5 -15 -3 -4 3 -7 12 -5 10 2 24 4 31 4 16 1 15 13 -4 37 -14 18
-15 18 -4 -6 l11 -25 -22 25 -22 25 7 -25z"/>
<path d="M7230 3239 c0 -5 5 -7 10 -4 6 3 10 8 10 11 0 2 -4 4 -10 4 -5 0 -10
-5 -10 -11z"/>
<path d="M5691 3194 c0 -11 3 -14 6 -6 3 7 2 16 -1 19 -3 4 -6 -2 -5 -13z"/>
<path d="M5681 3154 c0 -11 3 -14 6 -6 3 7 2 16 -1 19 -3 4 -6 -2 -5 -13z"/>
<path d="M6891 3094 c0 -11 3 -14 6 -6 3 7 2 16 -1 19 -3 4 -6 -2 -5 -13z"/>
<path d="M3505 3090 c3 -5 8 -10 11 -10 2 0 4 5 4 10 0 6 -5 10 -11 10 -5 0
-7 -4 -4 -10z"/>
<path d="M6881 3054 c0 -11 3 -14 6 -6 3 7 2 16 -1 19 -3 4 -6 -2 -5 -13z"/>
<path d="M6419 3033 l-24 -28 28 24 c25 23 32 31 24 31 -2 0 -14 -12 -28 -27z"/>
<path d="M5362 3022 c-63 -21 -72 -26 -60 -38 12 -12 25 -11 88 11 86 29 87
30 63 43 -13 7 -39 2 -91 -16z"/>
<path d="M6742 2853 c-6 -3 -10 -8 -8 -12 3 -4 -3 -7 -12 -8 -21 -1 -352 -151
-414 -187 l-45 -26 -23 -123 c-12 -67 -35 -183 -51 -257 -33 -149 -44 -230
-33 -230 4 0 64 29 133 64 70 36 170 83 222 106 51 22 99 47 105 55 6 8 26 22
45 30 29 14 30 15 7 10 -27 -5 -27 -5 -16 27 15 45 31 62 22 23 -4 -16 -4 -28
-1 -25 6 6 102 432 112 501 6 40 4 47 -12 51 -10 3 -24 3 -31 1z m-61 -60
c-12 -24 -94 -332 -95 -360 -1 -11 -4 -19 -8 -16 -12 7 -9 -22 3 -34 8 -8 8
-13 0 -17 -6 -4 -11 -3 -11 2 0 15 -197 145 -209 137 -6 -3 -10 -1 -9 6 2 6
-3 14 -11 17 -9 3 -11 0 -6 -8 5 -9 4 -11 -4 -6 -6 4 -9 11 -6 16 3 5 -3 14
-14 19 -29 16 -39 13 -17 -4 11 -8 15 -15 9 -15 -21 0 -33 27 -27 59 6 29 16
36 117 84 61 28 149 71 196 94 98 48 105 49 92 26z m-115 -488 c-2 -11 -23
-31 -50 -47 -63 -37 -340 -177 -344 -174 -1 2 13 75 32 162 19 87 39 184 46
215 l11 57 154 -96 c125 -78 154 -100 151 -117z m114 68 c-11 -17 -11 -17 -6
0 3 10 6 24 7 30 0 9 2 9 5 0 3 -7 0 -20 -6 -30z"/>
<path d="M6289 2833 c-13 -16 -12 -17 4 -4 16 13 21 21 13 21 -2 0 -10 -8 -17
-17z"/>
<path d="M6251 2774 c-13 -19 -21 -37 -19 -40 3 -3 16 11 28 31 29 47 22 54
-9 9z"/>
<path d="M3282 2775 c0 -16 2 -22 5 -12 2 9 2 23 0 30 -3 6 -5 -1 -5 -18z"/>
<path d="M2995 2749 c-20 -7 -19 -8 1 -8 19 -1 114 -90 114 -106 0 -4 -10 -3
-22 0 -23 7 -23 7 -3 -9 20 -15 20 -15 -5 -16 -14 0 -32 -5 -40 -11 -12 -8
-11 -9 5 -5 51 13 95 17 95 10 0 -5 21 -31 46 -59 l46 -50 -41 54 c-23 29 -41
57 -41 62 0 4 18 14 40 20 54 16 44 23 -13 8 -46 -11 -47 -11 -74 22 -56 65
-57 68 -31 79 21 10 21 10 -5 5 -16 -3 -34 -2 -40 3 -7 5 -21 6 -32 1z"/>
<path d="M2745 2730 c10 -11 20 -20 23 -20 3 0 -3 9 -13 20 -10 11 -20 20 -23
20 -3 0 3 -9 13 -20z"/>
<path d="M3118 2733 c17 -7 15 -23 -3 -23 -8 0 -15 5 -15 10 0 6 -4 10 -10 10
-18 0 -10 -19 10 -25 26 -8 58 14 38 26 -7 5 -17 8 -23 8 -5 0 -4 -3 3 -6z"/>
<path d="M2973 2720 c-34 -14 -28 -21 7 -9 17 6 30 13 30 15 0 6 -12 4 -37 -6z"/>
<path d="M3166 2698 c4 -6 3 -8 -4 -5 -17 11 -42 -4 -42 -24 0 -12 7 -19 20
-19 11 0 20 7 20 15 0 8 5 15 10 15 6 0 10 7 10 15 0 8 -5 15 -11 15 -5 0 -7
-5 -3 -12z"/>
<path d="M2692 2695 c2 -3 24 -6 47 -7 23 -1 44 -5 47 -10 3 -4 10 -5 17 -1
16 10 -21 21 -72 22 -24 1 -42 -1 -39 -4z"/>
<path d="M1441 2643 c13 -24 34 -53 47 -65 18 -17 16 -11 -9 23 -19 25 -40 55
-47 65 -7 10 -3 0 9 -23z"/>
<path d="M2548 2650 c18 -11 37 -20 42 -20 5 0 21 -12 36 -27 l26 -28 -17 28
c-10 15 -38 36 -62 47 -58 25 -67 25 -25 0z"/>
<path d="M2877 2558 c299 -400 343 -457 343 -446 0 3 -50 72 -110 153 -100
133 -128 180 -86 146 9 -7 24 -10 36 -6 14 4 28 1 41 -11 10 -9 22 -15 25 -12
3 3 -8 15 -25 27 -18 13 -32 17 -36 11 -11 -18 -35 -12 -29 8 5 14 4 15 -5 2
-10 -13 -15 -8 -12 13 0 4 -4 7 -9 7 -5 0 -10 -7 -10 -17 0 -14 -2 -14 -20 2
-24 22 -26 35 -4 35 8 0 12 4 9 10 -3 5 0 7 9 4 8 -3 23 -1 33 5 14 8 8 10
-30 11 -30 0 -46 -4 -42 -10 3 -5 2 -10 -4 -10 -5 0 -37 38 -71 85 -33 46 -66
87 -71 91 -6 3 25 -41 68 -98z"/>
<path d="M2650 2566 c0 -2 8 -10 18 -17 15 -13 16 -12 3 4 -13 16 -21 21 -21
13z"/>
<path d="M2680 2526 c0 -2 8 -10 18 -17 15 -13 16 -12 3 4 -13 16 -21 21 -21
13z"/>
<path d="M6761 2484 c0 -11 3 -14 6 -6 3 7 2 16 -1 19 -3 4 -6 -2 -5 -13z"/>
<path d="M2710 2486 c0 -2 8 -10 18 -17 15 -13 16 -12 3 4 -13 16 -21 21 -21
13z"/>
<path d="M6781 2474 c0 -11 3 -14 6 -6 3 7 2 16 -1 19 -3 4 -6 -2 -5 -13z"/>
<path d="M1920 2467 c0 -9 101 -177 106 -177 2 0 0 7 -3 17 -5 12 -3 14 8 8 8
-5 -1 8 -19 30 -37 45 -43 67 -10 39 12 -10 7 0 -12 24 -37 47 -49 56 -24 17
9 -14 12 -25 7 -25 -5 0 -19 17 -31 38 -12 20 -22 33 -22 29z"/>
<path d="M2740 2446 c0 -2 8 -10 18 -17 15 -13 16 -12 3 4 -13 16 -21 21 -21
13z"/>
<path d="M6771 2434 c0 -11 3 -14 6 -6 3 7 2 16 -1 19 -3 4 -6 -2 -5 -13z"/>
<path d="M1630 2358 c16 -29 32 -52 36 -50 3 2 15 -15 26 -37 11 -22 27 -46
36 -53 11 -9 9 -3 -5 17 -12 17 -28 46 -36 65 -9 19 -16 28 -16 20 -1 -8 -15
9 -31 38 -17 28 -33 52 -35 52 -3 0 8 -24 25 -52z"/>
<path d="M2770 2406 c0 -2 8 -10 18 -17 15 -13 16 -12 3 4 -13 16 -21 21 -21
13z"/>
<path d="M6741 2394 c0 -11 3 -14 6 -6 3 7 2 16 -1 19 -3 4 -6 -2 -5 -13z"/>
<path d="M6761 2394 c0 -11 3 -14 6 -6 3 7 2 16 -1 19 -3 4 -6 -2 -5 -13z"/>
<path d="M2800 2366 c0 -2 8 -10 18 -17 15 -13 16 -12 3 4 -13 16 -21 21 -21
13z"/>
<path d="M6731 2354 c0 -11 3 -14 6 -6 3 7 2 16 -1 19 -3 4 -6 -2 -5 -13z"/>
<path d="M6751 2354 c0 -11 3 -14 6 -6 3 7 2 16 -1 19 -3 4 -6 -2 -5 -13z"/>
<path d="M2035 2340 c10 -11 20 -20 23 -20 3 0 -3 9 -13 20 -10 11 -20 20 -23
20 -3 0 3 -9 13 -20z"/>
<path d="M2650 2318 c14 -17 12 -28 -4 -28 -8 0 -27 -5 -41 -10 -23 -9 -25
-13 -15 -25 7 -8 8 -15 3 -15 -6 0 -8 -12 -5 -26 2 -14 7 -21 11 -16 10 16 51
-23 52 -50 1 -19 2 -18 8 7 5 23 13 31 39 36 62 13 61 25 -1 84 -31 30 -52 50
-47 43z m52 -55 c28 -27 37 -53 17 -53 -5 0 -7 5 -3 12 5 8 2 9 -12 4 -47 -18
-74 -19 -74 -2 0 9 -7 19 -15 22 -8 4 -15 10 -15 14 0 5 39 22 69 29 3 1 18
-11 33 -26z"/>
<path d="M2877 2263 c26 -38 71 -100 100 -140 29 -39 48 -73 43 -75 -5 -2 1
-8 15 -14 19 -9 22 -9 18 2 -6 16 34 34 84 39 18 2 37 6 42 9 10 7 125 -131
201 -241 23 -35 45 -63 47 -63 9 0 -85 134 -165 233 -30 38 -52 71 -49 73 8 8
37 -26 144 -171 57 -77 117 -157 134 -177 l30 -38 -25 0 c-14 0 -26 -5 -26
-11 0 -6 9 -8 20 -4 11 4 20 2 20 -4 0 -6 6 -8 13 -6 7 3 63 -68 136 -170 68
-96 129 -175 134 -175 6 0 7 -3 4 -6 -6 -6 190 -304 200 -304 6 0 2 6 -96 149
-51 75 -80 126 -73 129 20 6 13 22 -15 34 l-28 11 30 6 c30 6 38 23 13 29 -9
2 -8 0 2 -7 12 -8 7 -11 -20 -11 -33 0 -60 14 -60 31 0 3 10 4 23 2 27 -5 56
21 36 33 -8 5 -9 3 -4 -6 6 -10 4 -12 -9 -7 -10 4 -15 3 -11 -3 3 -6 -1 -10
-9 -10 -9 0 -16 6 -16 13 0 9 -2 9 -8 0 -10 -16 -206 253 -198 273 3 7 0 11
-7 9 -7 -3 -39 32 -72 77 -59 81 -80 115 -54 91 16 -16 39 -17 39 -2 0 5 -4 7
-10 4 -5 -3 -15 -3 -20 0 -16 10 8 35 32 35 10 0 16 4 13 10 -5 8 -29 8 -75 1
-3 -1 2 -6 10 -11 10 -6 12 -12 5 -19 -7 -7 -33 20 -81 82 -101 131 -102 133
-59 147 19 6 40 8 47 4 10 -5 10 -4 2 5 -9 10 -24 9 -68 -4 -30 -9 -60 -14
-65 -10 -6 3 -18 1 -28 -4 -20 -11 -112 -41 -124 -41 -5 0 -51 61 -104 135
-53 74 -98 135 -101 135 -3 0 16 -30 43 -67z"/>
<path d="M5913 2301 c4 -20 2 -31 -8 -35 -11 -4 -15 2 -15 21 0 26 -1 27 -17
9 -13 -13 -15 -20 -5 -23 6 -3 12 -11 12 -20 0 -8 3 -13 8 -11 4 3 22 11 39
18 38 17 51 40 23 40 -11 0 -20 7 -20 15 0 8 -5 15 -11 15 -7 0 -9 -11 -6 -29z"/>
<path d="M5198 2298 c-22 -34 -42 -74 -31 -63 14 15 55 85 50 85 -3 0 -11 -10
-19 -22z"/>
<path d="M5240 2300 c-6 -11 -8 -20 -6 -20 3 0 10 9 16 20 6 11 8 20 6 20 -3
0 -10 -9 -16 -20z"/>
<path d="M2066 2295 c7 -18 6 -19 -12 -5 -10 8 -16 10 -12 6 4 -5 0 -15 -9
-22 -15 -11 -14 -11 10 -7 33 6 44 21 28 36 -9 9 -10 7 -5 -8z"/>
<path d="M6094 2303 c4 -5 -18 -13 -51 -20 l-58 -12 52 3 c29 2 50 -1 47 -6
-8 -12 5 -10 55 9 36 14 40 18 25 24 -25 10 -79 11 -70 2z"/>
<path d="M5737 2243 c-4 -3 -7 -21 -7 -40 0 -23 5 -33 15 -33 8 0 15 5 15 10
0 6 -4 10 -8 10 -5 0 -7 14 -4 30 4 30 1 36 -11 23z"/>
<path d="M5836 2231 c-4 -7 -5 -15 -2 -18 9 -9 19 4 14 18 -4 11 -6 11 -12 0z"/>
<path d="M2105 2210 c10 -11 20 -20 23 -20 3 0 -3 9 -13 20 -10 11 -20 20 -23
20 -3 0 3 -9 13 -20z"/>
<path d="M5788 2219 c-21 -12 -24 -39 -5 -39 17 0 37 20 37 37 0 15 -9 16 -32
2z"/>
<path d="M3450 2209 c-13 -9 -13 -10 2 -6 11 4 35 -19 84 -85 37 -49 72 -95
78 -101 6 -7 40 -56 75 -109 35 -54 66 -98 68 -98 6 0 -28 55 -81 134 -21 33
-39 65 -39 72 0 7 -4 12 -8 11 -8 -2 -149 173 -149 185 0 11 -12 10 -30 -3z"/>
<path d="M3997 2197 c-3 -9 -44 -18 -116 -26 -105 -13 -113 -13 -134 5 -21 19
-21 19 -7 0 8 -11 25 -30 38 -43 13 -13 20 -28 16 -35 -4 -6 -3 -8 3 -5 6 4
32 -10 58 -30 27 -20 45 -31 41 -25 -3 6 -2 13 4 17 5 3 10 11 10 17 0 7 -5 6
-14 -1 -11 -9 -16 -9 -22 0 -4 8 -3 9 4 5 7 -4 12 -2 12 4 0 7 6 10 14 7 7 -3
29 10 47 30 19 19 48 42 64 50 22 10 24 13 7 9 -19 -4 -22 -1 -17 15 7 21 0
26 -8 6z m-47 -57 c0 -5 -5 -10 -11 -10 -5 0 -7 5 -4 10 3 6 8 10 11 10 2 0 4
-4 4 -10z"/>
<path d="M4942 2178 c-10 -18 -31 -54 -46 -80 -15 -27 -31 -48 -36 -48 -5 0
-7 -7 -3 -16 6 -17 10 -11 77 109 37 67 44 95 8 35z"/>
<path d="M5664 2192 c-11 -10 -24 -17 -30 -15 -5 2 -21 -7 -34 -19 -14 -13
-27 -22 -30 -20 -3 2 -8 -7 -11 -20 l-5 -23 -8 25 c-6 20 -9 21 -13 8 -2 -10
-10 -15 -19 -11 -12 5 -15 -1 -11 -28 2 -19 2 -27 0 -17 -4 14 -32 33 -38 26
-9 -11 -13 -56 -6 -67 7 -11 12 -11 32 1 13 7 27 17 30 21 3 5 8 8 10 7 2 -1
16 1 30 5 21 5 25 11 21 36 -3 18 0 29 8 29 7 0 10 -7 6 -16 -3 -8 -2 -12 4
-9 6 3 10 1 10 -4 0 -16 19 -13 38 6 9 9 15 26 14 38 -2 13 4 30 14 39 23 23
12 30 -12 8z m-37 -69 c-3 -10 -5 -4 -5 12 0 17 2 24 5 18 2 -7 2 -21 0 -30z
m-150 -75 c-3 -7 -5 -2 -5 12 0 14 2 19 5 13 2 -7 2 -19 0 -25z"/>
<path d="M1775 2149 c13 -28 28 -56 34 -62 6 -6 -2 17 -19 51 -16 34 -32 62
-34 62 -3 0 6 -23 19 -51z"/>
<path d="M1810 2170 c6 -11 13 -20 16 -20 2 0 0 9 -6 20 -6 11 -13 20 -16 20
-2 0 0 -9 6 -20z"/>
<path d="M2742 2151 l-2 -45 -37 35 c-21 18 -30 25 -20 13 23 -28 22 -31 -15
-37 -43 -6 -58 1 -58 27 0 15 -3 17 -9 8 -4 -7 -7 -36 -5 -65 1 -29 3 -70 4
-92 1 -22 4 -32 7 -22 6 23 15 22 31 -4 7 -11 19 -18 27 -15 17 6 27 -18 12
-33 -8 -8 -8 -11 0 -11 6 0 13 5 15 11 4 13 104 -120 263 -346 92 -132 129
-180 110 -145 -5 8 -17 28 -28 43 -21 31 -21 32 13 47 24 10 23 10 -5 5 -38
-7 -47 2 -151 155 -42 63 -96 138 -119 165 -23 28 -51 65 -64 83 -23 33 -23
33 -3 39 12 3 28 16 37 30 16 24 16 25 -7 18 -22 -7 -22 -7 -5 12 9 11 17 26
17 33 0 8 13 2 33 -16 l32 -29 -32 35 c-26 29 -33 45 -36 90 -3 51 -3 52 -5
11z m-86 -68 c-3 -8 -6 -36 -6 -61 0 -46 0 -46 -16 -24 -9 13 -18 43 -21 66
-4 42 -3 43 22 38 18 -3 24 -9 21 -19z m84 -13 c0 -11 -2 -20 -4 -20 -2 0 -6
9 -9 20 -3 11 -1 20 4 20 5 0 9 -9 9 -20z m-65 -59 c3 -5 1 -12 -5 -16 -5 -3
-10 1 -10 9 0 18 6 21 15 7z"/>
<path d="M2170 2121 c22 -36 43 -67 47 -70 14 -13 -41 78 -63 105 -14 16 -6 0
16 -35z"/>
<path d="M3550 2176 c0 -2 8 -10 18 -17 15 -13 16 -12 3 4 -13 16 -21 21 -21
13z"/>
<path d="M5670 2151 c0 -14 6 -19 20 -18 23 2 27 17 4 17 -8 0 -12 5 -9 10 3
6 1 10 -4 10 -6 0 -11 -9 -11 -19z"/>
<path d="M3285 2150 c-16 -7 -17 -9 -3 -9 9 -1 20 4 23 9 7 11 7 11 -20 0z"/>
<path d="M3368 2148 c-10 -7 -9 -8 4 -6 12 2 47 -37 114 -127 53 -71 101 -132
107 -134 5 -2 -5 18 -24 45 -37 53 -34 49 -113 148 -30 39 -53 73 -51 76 6 10
-22 8 -37 -2z"/>
<path d="M6771 2147 c9 -7 57 -43 107 -81 l90 -68 -13 -39 c-8 -22 -11 -39 -6
-39 4 0 12 17 17 37 l9 37 65 -59 c36 -32 76 -68 90 -79 28 -23 -17 21 -92 91
-39 35 -46 47 -42 70 3 23 2 25 -6 11 -6 -10 -14 -18 -18 -18 -4 0 -52 34
-106 75 -54 41 -101 75 -105 75 -3 0 1 -6 10 -13z"/>
<path d="M3461 2134 c19 -30 199 -267 212 -279 27 -26 -159 225 -207 279 l-18
21 13 -21z"/>
<path d="M3580 2136 c0 -2 8 -10 18 -17 15 -13 16 -12 3 4 -13 16 -21 21 -21
13z"/>
<path d="M2548 2106 c-10 -7 -18 -25 -18 -40 0 -22 2 -25 18 -15 10 6 17 23
17 40 0 16 0 29 0 29 0 0 -8 -7 -17 -14z"/>
<path d="M6752 2085 c-17 -17 -133 -85 -194 -113 -3 -2 -4 6 -1 17 3 12 1 21
-4 21 -17 0 -73 -31 -73 -40 0 -17 23 -23 34 -8 6 8 17 13 25 10 8 -3 -5 -16
-33 -34 -26 -16 -51 -26 -56 -23 -6 4 -10 20 -10 38 0 20 -3 28 -10 21 -6 -6
-6 -21 -1 -42 10 -35 21 -26 -119 -104 -22 -13 -36 -16 -38 -9 -2 6 -8 8 -13
5 -6 -3 -20 2 -32 12 -19 16 -18 15 2 -9 14 -15 23 -28 20 -30 -2 -2 -56 -35
-119 -72 -63 -38 -134 -81 -157 -97 -49 -33 -51 -33 -49 -12 2 25 -16 26 -44
4 -23 -19 -24 -21 -8 -33 15 -12 15 -14 -3 -25 -25 -16 -27 -15 -25 4 0 9 -5
19 -12 21 -14 5 -14 -27 0 -37 4 -3 -30 -28 -75 -55 -45 -28 -118 -74 -162
-104 -44 -30 -126 -83 -181 -117 -96 -59 -102 -62 -108 -41 -5 19 -6 20 -23 5
-10 -9 -22 -16 -28 -15 -5 1 -11 -8 -13 -20 -2 -14 2 -23 9 -23 7 0 4 -6 -7
-15 -23 -17 -43 -20 -26 -3 7 7 12 17 12 23 0 5 -5 2 -11 -7 -18 -32 -29 -19
-23 30 4 35 3 43 -5 32 -18 -25 -14 -88 6 -92 11 -2 -5 -16 -45 -41 -34 -21
-64 -42 -67 -48 -4 -5 40 20 97 57 57 37 150 96 208 132 58 36 116 72 129 81
23 15 23 14 17 -9 l-7 -25 13 23 c13 21 15 21 33 5 19 -18 19 -17 0 5 -19 23
-19 24 5 42 28 21 336 214 530 331 82 50 128 72 132 65 5 -7 8 -6 8 4 0 9 28
31 63 49 74 41 322 182 391 223 34 20 51 26 56 18 5 -7 10 -1 14 15 9 36 5 38
-22 10z m-202 -95 c0 -5 -2 -10 -4 -10 -3 0 -8 5 -11 10 -3 6 -1 10 4 10 6 0
11 -4 11 -10z m-630 -370 c0 -5 -5 -10 -11 -10 -5 0 -7 5 -4 10 3 6 8 10 11
10 2 0 4 -4 4 -10z m-12 -31 c-7 -5 -14 -4 -16 1 -2 6 -9 7 -14 4 -6 -4 -8 -2
-5 4 4 5 16 8 28 5 16 -4 17 -8 7 -14z m-608 -369 c0 -5 -5 -10 -11 -10 -5 0
-8 -4 -5 -9 7 -10 -19 -23 -28 -14 -3 4 -6 11 -6 17 0 6 4 5 9 -3 7 -11 10 -9
16 8 6 21 25 29 25 11z"/>
<path d="M2503 2088 c-4 -7 -6 -21 -4 -32 1 -10 -2 -15 -8 -12 -5 4 -14 -2
-20 -11 -9 -16 -10 -16 -11 5 0 12 5 22 10 22 6 0 10 4 10 10 0 5 -7 7 -15 4
-15 -6 -21 -45 -9 -56 3 -4 19 1 35 10 22 13 28 23 27 45 -3 31 -4 32 -15 15z"/>
<path d="M3610 2096 c0 -2 8 -10 18 -17 15 -13 16 -12 3 4 -13 16 -21 21 -21
13z"/>
<path d="M2875 2070 c10 -11 20 -20 23 -20 3 0 -3 9 -13 20 -10 11 -20 20 -23
20 -3 0 3 -9 13 -20z"/>
<path d="M3723 2072 c-23 -9 -45 -20 -49 -24 -4 -4 -14 -2 -22 5 -13 10 -14 9
-7 -3 15 -26 87 -120 92 -120 3 0 -12 23 -32 51 -28 37 -35 53 -27 61 7 7 13
10 15 7 2 -2 25 -34 51 -71 26 -38 50 -68 52 -68 2 0 -17 32 -42 70 -26 39
-45 72 -43 74 2 2 20 11 39 19 48 21 25 20 -27 -1z"/>
<path d="M4916 2075 c-9 -26 -7 -32 5 -12 6 10 9 21 6 23 -2 3 -7 -2 -11 -11z"/>
<path d="M7104 2074 c-18 -14 -18 -15 4 -4 12 6 22 13 22 15 0 8 -5 6 -26 -11z"/>
<path d="M2950 2070 c-9 -6 -10 -10 -3 -10 6 0 15 5 18 10 8 12 4 12 -15 0z"/>
<path d="M1830 2056 c0 -9 49 -86 55 -86 3 0 -7 19 -21 43 -31 49 -34 53 -34
43z"/>
<path d="M2410 2053 c-42 -13 -60 -28 -60 -48 0 -12 -3 -25 -7 -28 -10 -11
-32 13 -26 29 3 8 0 14 -6 14 -17 0 -26 -51 -10 -61 8 -5 16 -3 21 4 4 7 8 9
8 4 0 -4 12 1 27 10 15 10 30 18 33 18 3 0 4 3 3 8 -8 22 -7 30 5 34 8 3 12
-5 12 -23 0 -37 13 -22 14 16 1 16 1 30 1 29 0 0 -7 -3 -15 -6z m-36 -48 c-4
-8 -8 -15 -10 -15 -2 0 -4 7 -4 15 0 8 4 15 10 15 5 0 7 -7 4 -15z"/>
<path d="M3379 2037 c6 -6 18 -12 27 -13 12 -2 14 0 5 9 -6 6 -18 12 -27 13
-12 2 -14 0 -5 -9z"/>
<path d="M2828 2014 c-43 -14 -78 -30 -78 -35 0 -18 -3 -24 -19 -36 -9 -7 11
-4 43 7 33 11 62 20 66 20 4 0 32 -33 63 -72 30 -40 71 -91 92 -113 31 -33 30
-30 -7 15 -93 115 -137 178 -131 184 11 11 -13 6 -50 -9 -45 -19 -62 -20 -46
-2 7 7 22 14 33 15 11 0 30 6 41 12 11 5 38 16 60 24 69 25 14 16 -67 -10z"/>
<path d="M7024 2024 c-18 -14 -18 -15 4 -4 12 6 22 13 22 15 0 8 -5 6 -26 -11z"/>
<path d="M2925 2014 c-16 -8 -22 -12 -13 -10 21 6 54 -31 144 -159 37 -52 69
-93 72 -91 2 3 -25 46 -62 95 -36 50 -66 94 -66 98 0 4 21 -14 46 -42 l46 -50
-42 53 c-24 29 -45 50 -48 47 -8 -7 -52 36 -52 51 0 7 6 15 13 17 6 3 8 6 2 6
-5 0 -23 -7 -40 -15z"/>
<path d="M1950 1962 c24 -35 48 -66 54 -70 12 -7 -59 95 -82 118 -8 8 4 -13
28 -48z"/>
<path d="M2331 2004 c0 -11 3 -14 6 -6 3 7 2 16 -1 19 -3 4 -6 -2 -5 -13z"/>
<path d="M3160 1960 c29 -33 54 -60 57 -60 3 0 -18 27 -47 60 -29 33 -54 60
-57 60 -3 0 18 -27 47 -60z"/>
<path d="M3200 2016 c0 -2 8 -10 18 -17 15 -13 16 -12 3 4 -13 16 -21 21 -21
13z"/>
<path d="M3070 1972 c30 -36 150 -202 282 -389 65 -92 90 -124 73 -93 -5 8
-44 66 -88 129 l-80 114 28 24 27 24 26 -23 25 -23 -18 28 c-21 32 -36 34 -60
7 -27 -29 -46 -13 -125 105 -39 58 -75 105 -80 105 -6 0 -9 5 -7 11 1 6 -6 13
-16 14 -14 3 -11 -5 13 -33z"/>
<path d="M3415 1987 c19 -29 14 -41 -20 -50 -11 -3 -1 -4 21 -4 39 2 41 3 28
22 -24 34 -15 41 12 10 l26 -30 -22 33 c-12 18 -25 31 -28 28 -3 -3 -12 0 -20
7 -11 8 -10 4 3 -16z"/>
<path d="M5489 1964 c-13 -25 -35 -66 -48 -90 -13 -25 -22 -47 -20 -49 2 -2
20 15 39 38 22 26 28 38 17 34 -17 -6 -17 -5 1 21 29 41 54 92 44 92 -4 0 -19
-21 -33 -46z"/>
<path d="M2250 1980 c6 -11 13 -20 16 -20 2 0 0 9 -6 20 -6 11 -13 20 -16 20
-2 0 0 -9 6 -20z"/>
<path d="M3254 1947 c16 -20 30 -37 33 -37 7 0 -36 58 -49 66 -7 4 1 -9 16
-29z"/>
<path d="M3346 1970 c5 -5 25 -12 44 -15 36 -5 29 -1 -25 16 -20 6 -26 6 -19
-1z"/>
<path d="M6924 1964 c-18 -14 -18 -15 4 -4 12 6 22 13 22 15 0 8 -5 6 -26 -11z"/>
<path d="M2210 1939 c0 -16 4 -28 9 -25 8 5 3 56 -5 56 -2 0 -4 -14 -4 -31z"/>
<path d="M2173 1946 c-13 -6 -23 -18 -23 -28 0 -12 -6 -16 -21 -13 -15 3 -23
-2 -26 -15 -3 -11 -10 -20 -15 -20 -6 0 -8 9 -5 20 3 11 1 18 -4 14 -5 -3 -9
-14 -9 -25 0 -23 41 -27 60 -4 7 8 16 12 21 9 5 -3 9 7 10 23 0 20 2 23 7 11
9 -22 26 -10 29 20 2 12 2 21 0 21 -1 -1 -12 -6 -24 -13z m-56 -68 c-3 -8 -6
-5 -6 6 -1 11 2 17 5 13 3 -3 4 -12 1 -19z"/>
<path d="M2945 1905 c112 -144 164 -218 159 -227 -3 -5 -13 -3 -22 4 -14 10
-15 10 -4 -2 6 -8 12 -25 12 -40 -1 -25 -1 -25 -31 10 l-31 35 31 -44 c26 -38
29 -49 24 -89 -4 -30 -3 -43 4 -39 13 8 6 -82 -8 -99 -10 -12 3 -32 53 -85 15
-16 14 -18 -20 -33 -21 -8 -26 -12 -12 -9 14 4 35 7 47 8 12 0 21 5 20 10 -1
6 7 10 18 10 11 0 23 4 26 8 3 5 15 10 25 11 13 2 19 12 20 32 2 86 3 87 22
73 16 -13 16 -13 0 7 -27 31 -24 108 4 128 20 14 20 16 4 16 -10 0 -36 -5 -58
-12 -29 -9 -41 -9 -50 0 -15 15 -32 16 -23 2 3 -5 0 -7 -8 -4 -11 4 -13 -4 -9
-42 3 -36 1 -45 -9 -42 -8 3 -15 18 -15 34 -1 16 -3 34 -4 39 -6 25 1 37 20
32 10 -3 21 0 22 5 4 12 53 14 84 4 15 -5 21 -3 21 7 0 9 -7 12 -18 10 -19 -5
-71 35 -63 49 4 5 -10 6 -31 2 -26 -5 -36 -3 -31 4 6 11 -110 172 -179 247
-26 29 -23 24 10 -20z m193 -264 c3 -8 -1 -12 -9 -9 -7 2 -15 10 -17 17 -3 8
1 12 9 9 7 -2 15 -10 17 -17z m26 13 c20 -8 21 -24 2 -24 -8 0 -16 7 -20 15
-6 17 -4 18 18 9z m66 -166 c0 -5 -14 -8 -30 -8 -27 0 -30 3 -24 24 3 13 1 27
-5 31 -6 3 -9 11 -5 17 6 9 63 -48 64 -64z m12 32 l5 -30 -24 22 c-28 26 -29
38 -4 38 13 0 20 -9 23 -30z m-85 -37 c-3 -10 -5 -4 -5 12 0 17 2 24 5 18 2
-7 2 -21 0 -30z m-19 -15 c-2 -7 3 -12 10 -10 6 1 12 -5 12 -13 0 -8 -4 -15
-10 -15 -5 0 -10 -5 -10 -11 0 -5 5 -7 10 -4 6 3 10 0 10 -7 0 -24 -12 -58
-20 -58 -9 0 -25 40 -22 53 1 4 -5 7 -13 7 -13 0 -14 4 -5 20 6 11 8 24 5 29
-3 5 3 12 12 14 10 3 19 5 21 6 1 0 1 -5 0 -11z m111 -20 c0 -31 -1 -31 -10
-10 -5 13 -7 28 -3 33 10 16 14 9 13 -23z m-34 12 c-3 -5 -11 -10 -16 -10 -6
0 -7 5 -4 10 3 6 11 10 16 10 6 0 7 -4 4 -10z m-11 -101 c-4 -8 1 -9 16 -4 14
4 20 3 16 -3 -12 -19 -42 -20 -43 -1 -1 11 3 19 8 19 6 0 7 -5 3 -11z"/>
<path d="M1925 1920 c9 -16 18 -30 21 -30 2 0 -2 14 -11 30 -9 17 -18 30 -21
30 -2 0 2 -13 11 -30z"/>
<path d="M2280 1930 c6 -11 13 -20 16 -20 2 0 0 9 -6 20 -6 11 -13 20 -16 20
-2 0 0 -9 6 -20z"/>
<path d="M2605 1940 c3 -5 8 -10 11 -10 2 0 4 5 4 10 0 6 -5 10 -11 10 -5 0
-7 -4 -4 -10z"/>
<path d="M6874 1934 c-18 -14 -18 -15 4 -4 12 6 22 13 22 15 0 8 -5 6 -26 -11z"/>
<path d="M3480 1926 c0 -2 8 -10 18 -17 15 -13 16 -12 3 4 -13 16 -21 21 -21
13z"/>
<path d="M2880 1880 c17 -22 34 -40 37 -40 2 0 -10 18 -27 40 -17 22 -34 40
-37 40 -2 0 10 -18 27 -40z"/>
<path d="M3755 1896 c10 -14 19 -26 22 -26 7 0 -17 39 -28 46 -6 3 -3 -5 6
-20z"/>
<path d="M6824 1904 c-18 -14 -18 -15 4 -4 12 6 22 13 22 15 0 8 -5 6 -26 -11z"/>
<path d="M2610 1900 c0 -5 5 -10 11 -10 5 0 7 5 4 10 -3 6 -8 10 -11 10 -2 0
-4 -4 -4 -10z"/>
<path d="M3293 1893 c4 -6 -6 -13 -23 -15 -17 -3 -30 -1 -30 4 0 4 -9 8 -20 8
-11 0 -20 -4 -20 -10 0 -5 8 -7 18 -4 9 3 6 -2 -8 -11 l-25 -16 30 6 c86 16
107 26 84 40 -7 5 -10 4 -6 -2z"/>
<path d="M6720 1844 c-41 -25 -79 -51 -85 -57 -5 -6 1 -4 15 4 132 80 161 99
147 99 -1 0 -36 -21 -77 -46z"/>
<path d="M2010 1876 c0 -2 8 -10 18 -17 15 -13 16 -12 3 4 -13 16 -21 21 -21
13z"/>
<path d="M2691 1801 c35 -45 68 -85 73 -88 5 -4 -18 30 -52 75 -34 44 -67 84
-74 88 -6 4 17 -30 53 -75z"/>
<path d="M1992 1830 c13 -22 26 -40 31 -40 4 0 -5 18 -19 40 -34 52 -41 52
-12 0z"/>
<path d="M3346 1818 c20 -32 39 -58 41 -58 7 0 -29 58 -55 88 -13 15 -6 1 14
-30z"/>
<path d="M3602 1857 c10 -8 14 -18 10 -22 -4 -5 -1 -5 6 -1 17 10 15 14 -10
26 -21 10 -21 10 -6 -3z"/>
<path d="M3830 1852 c10 -21 8 -24 -27 -38 -115 -47 -224 -97 -229 -106 -3 -5
16 2 42 15 27 13 92 41 144 62 81 32 142 64 103 53 -6 -2 -19 6 -28 17 -16 20
-16 19 -5 -3z"/>
<path d="M2820 1846 c0 -2 8 -10 18 -17 15 -13 16 -12 3 4 -13 16 -21 21 -21
13z"/>
<path d="M3110 1820 c12 -16 24 -30 26 -30 3 0 -4 14 -16 30 -12 17 -24 30
-26 30 -3 0 4 -13 16 -30z"/>
<path d="M3258 1823 c3 -17 0 -23 -14 -23 -9 0 -15 -2 -13 -5 3 -2 23 -1 46 3
l40 7 -32 21 -32 21 5 -24z"/>
<path d="M2055 1820 c10 -11 20 -20 23 -20 3 0 -3 9 -13 20 -10 11 -20 20 -23
20 -3 0 3 -9 13 -20z"/>
<path d="M3958 1800 c-73 -38 -77 -39 -83 -20 -4 11 -11 20 -16 20 -5 0 -1
-12 8 -27 14 -22 15 -26 3 -21 -8 3 -24 9 -35 13 -19 6 -19 6 -2 -5 18 -11 18
-12 0 -26 -16 -13 -15 -13 9 -3 15 6 33 9 40 6 28 -10 390 -561 400 -608 3
-12 55 -59 66 -59 2 0 -8 12 -22 28 -31 32 -217 335 -210 341 2 3 12 -5 20
-18 12 -16 19 -20 27 -12 8 8 7 15 -2 24 -11 10 -13 10 -7 0 4 -7 2 -13 -3
-13 -6 0 -11 9 -11 19 0 26 -18 37 -26 17 -5 -14 -108 123 -206 275 l-16 26
70 34 c38 18 72 37 74 41 7 11 7 11 -78 -32z"/>
<path d="M2920 1826 c0 -2 8 -10 18 -17 15 -13 16 -12 3 4 -13 16 -21 21 -21
13z"/>
<path d="M3625 1821 c-3 -5 -2 -12 3 -15 5 -3 9 1 9 9 0 17 -3 19 -12 6z"/>
<path d="M6993 1817 c0 -8 6 -14 14 -14 9 0 10 4 2 14 -6 7 -12 13 -14 13 -1
0 -2 -6 -2 -13z"/>
<path d="M2610 1816 c0 -2 8 -10 18 -17 15 -13 16 -12 3 4 -13 16 -21 21 -21
13z"/>
<path d="M2865 1790 c10 -11 20 -20 23 -20 3 0 -3 9 -13 20 -10 11 -20 20 -23
20 -3 0 3 -9 13 -20z"/>
<path d="M6909 1793 c-13 -16 -12 -17 4 -4 9 7 17 15 17 17 0 8 -8 3 -21 -13z"/>
<path d="M6944 1802 c3 -5 0 -51 -6 -104 l-10 -95 -51 -34 c-27 -19 -64 -47
-81 -63 -37 -35 -24 -27 75 47 70 52 75 58 72 89 -2 21 0 27 4 16 5 -10 9 20
9 68 1 46 -3 84 -8 84 -5 0 -7 -4 -4 -8z"/>
<path d="M2080 1786 c0 -2 8 -10 18 -17 15 -13 16 -12 3 4 -13 16 -21 21 -21
13z"/>
<path d="M2970 1760 c12 -16 24 -30 26 -30 3 0 -4 14 -16 30 -12 17 -24 30
-26 30 -3 0 4 -13 16 -30z"/>
<path d="M6926 1782 c-3 -6 -8 -39 -11 -74 l-5 -63 14 70 c13 69 14 86 2 67z"/>
<path d="M2300 1770 c-8 -5 -10 -10 -5 -10 6 0 17 5 25 10 8 5 11 10 5 10 -5
0 -17 -5 -25 -10z"/>
<path d="M2679 1728 c24 -32 45 -58 48 -58 7 0 -59 89 -76 103 -8 7 5 -14 28
-45z"/>
<path d="M3155 1760 c10 -11 20 -20 23 -20 3 0 -3 9 -13 20 -10 11 -20 20 -23
20 -3 0 3 -9 13 -20z"/>
<path d="M6304 1737 c21 -26 40 -47 43 -47 7 0 -56 78 -70 87 -6 4 6 -14 27
-40z"/>
<path d="M7007 1752 c-2 -15 -4 -42 -2 -59 2 -32 -8 -44 -18 -23 -3 6 -4 5 -3
-2 2 -7 -4 -22 -13 -32 -18 -22 87 49 134 90 l30 26 -37 -26 c-44 -31 -58 -34
-33 -6 17 18 17 20 2 14 -11 -4 -18 -1 -18 7 -1 8 -5 -4 -8 -25 -3 -22 -12
-41 -19 -42 -7 -1 -8 0 -2 3 12 6 14 90 1 97 -5 3 -11 -7 -14 -22z"/>
<path d="M6846 1753 c-6 -14 -5 -15 5 -6 7 7 10 15 7 18 -3 3 -9 -2 -12 -12z"/>
<path d="M2051 1755 c0 -5 6 -21 14 -35 8 -14 14 -20 14 -15 0 6 -6 21 -14 35
-8 14 -14 21 -14 15z"/>
<path d="M2935 1694 c27 -38 55 -76 63 -84 8 -8 -9 20 -38 63 -29 43 -58 80
-63 84 -6 3 11 -25 38 -63z"/>
<path d="M6506 1710 c-44 -28 -85 -55 -90 -61 -12 -13 154 87 169 102 18 17 0
8 -79 -41z"/>
<path d="M2116 1735 c4 -8 11 -15 16 -15 6 0 5 6 -2 15 -7 8 -14 15 -16 15 -2
0 -1 -7 2 -15z"/>
<path d="M2220 1740 c-8 -5 -10 -10 -5 -10 6 0 17 5 25 10 8 5 11 10 5 10 -5
0 -17 -5 -25 -10z"/>
<path d="M3136 1742 c-3 -5 1 -9 9 -9 8 0 12 4 9 9 -3 4 -7 8 -9 8 -2 0 -6 -4
-9 -8z"/>
<path d="M2540 1710 c12 -16 24 -30 26 -30 3 0 -4 14 -16 30 -12 17 -24 30
-26 30 -3 0 4 -13 16 -30z"/>
<path d="M2600 1721 c5 -11 15 -23 21 -27 6 -3 3 5 -6 20 -20 30 -30 35 -15 7z"/>
<path d="M3045 1720 c10 -11 20 -20 23 -20 3 0 -3 9 -13 20 -10 11 -20 20 -23
20 -3 0 3 -9 13 -20z"/>
<path d="M3326 1727 c3 -10 9 -15 12 -12 3 3 0 11 -7 18 -10 9 -11 8 -5 -6z"/>
<path d="M3456 1727 c3 -10 9 -15 12 -12 3 3 0 11 -7 18 -10 9 -11 8 -5 -6z"/>
<path d="M6806 1725 c-3 -9 -6 -22 -5 -28 0 -7 5 -1 10 12 5 13 8 26 5 28 -2
2 -6 -3 -10 -12z"/>
<path d="M6981 1724 c0 -11 3 -14 6 -6 3 7 2 16 -1 19 -3 4 -6 -2 -5 -13z"/>
<path d="M3188 1718 c16 -16 15 -31 0 -21 -19 11 -39 13 -32 1 3 -5 9 -7 12
-4 3 3 11 1 19 -5 7 -6 13 -8 13 -4 0 4 8 1 17 -6 11 -9 10 -3 -6 19 -12 17
-25 32 -29 32 -3 0 -1 -5 6 -12z"/>
<path d="M6838 1690 c-4 -45 7 -41 17 8 4 19 3 32 -3 32 -6 0 -12 -18 -14 -40z"/>
<path d="M3000 1716 c0 -2 8 -10 18 -17 15 -13 16 -12 3 4 -13 16 -21 21 -21
13z"/>
<path d="M6772 1704 c-7 -8 -8 -14 -3 -14 10 0 25 19 20 25 -2 1 -10 -3 -17
-11z"/>
<path d="M2140 1706 c0 -2 8 -10 18 -17 15 -13 16 -12 3 4 -13 16 -21 21 -21
13z"/>
<path d="M2800 1655 c17 -25 33 -45 36 -45 3 0 -9 20 -26 45 -17 25 -33 45
-36 45 -3 0 9 -20 26 -45z"/>
<path d="M2070 1680 c-8 -5 -10 -10 -5 -10 6 0 17 5 25 10 8 5 11 10 5 10 -5
0 -17 -5 -25 -10z"/>
<path d="M3460 1655 c-14 -8 -20 -14 -15 -14 6 0 21 6 35 14 14 8 21 14 15 14
-5 0 -21 -6 -35 -14z"/>
<path d="M6791 1654 c0 -11 3 -14 6 -6 3 7 2 16 -1 19 -3 4 -6 -2 -5 -13z"/>
<path d="M2750 1630 c12 -16 24 -30 26 -30 3 0 -4 14 -16 30 -12 17 -24 30
-26 30 -3 0 4 -13 16 -30z"/>
<path d="M7128 1629 c-24 -17 -28 -18 -28 -5 0 9 -4 16 -10 16 -12 0 -13 -20
-1 -39 7 -10 16 -6 42 18 39 35 37 40 -3 10z"/>
<path d="M2210 1610 c12 -16 24 -30 26 -30 3 0 -4 14 -16 30 -12 17 -24 30
-26 30 -3 0 4 -13 16 -30z"/>
<path d="M6360 1619 c-17 -13 -18 -17 -5 -10 33 17 51 31 40 31 -5 0 -21 -10
-35 -21z"/>
<path d="M6901 1624 c0 -11 3 -14 6 -6 3 7 2 16 -1 19 -3 4 -6 -2 -5 -13z"/>
<path d="M6761 1614 c0 -11 3 -14 6 -6 3 7 2 16 -1 19 -3 4 -6 -2 -5 -13z"/>
<path d="M6842 1610 c0 -14 2 -19 5 -12 2 6 2 18 0 25 -3 6 -5 1 -5 -13z"/>
<path d="M5807 1613 c-12 -12 -7 -22 8 -17 8 4 15 10 15 15 0 11 -14 12 -23 2z"/>
<path d="M6620 1599 c-22 -18 -22 -19 -3 -10 12 6 25 16 28 21 9 15 3 12 -25
-11z"/>
<path d="M6731 1604 c0 -11 3 -14 6 -6 3 7 2 16 -1 19 -3 4 -6 -2 -5 -13z"/>
<path d="M6782 1600 c0 -14 2 -19 5 -12 2 6 2 18 0 25 -3 6 -5 1 -5 -13z"/>
<path d="M2630 1580 c12 -16 24 -30 26 -30 3 0 -4 14 -16 30 -12 17 -24 30
-26 30 -3 0 4 -13 16 -30z"/>
<path d="M6304 1584 c-18 -14 -18 -15 4 -4 12 6 22 13 22 15 0 8 -5 6 -26 -11z"/>
<path d="M2789 1575 c5 -11 17 -29 26 -40 l16 -20 -10 20 c-5 11 -17 29 -26
40 l-16 20 10 -20z"/>
<path d="M7001 1579 c0 -8 4 -22 8 -32 6 -18 7 -18 23 0 12 13 14 23 8 33 -8
12 -10 11 -10 -5 -1 -20 -1 -20 -15 -1 -11 14 -15 15 -14 5z"/>
<path d="M7057 1579 c7 -7 15 -10 18 -7 3 3 -2 9 -12 12 -14 6 -15 5 -6 -5z"/>
<path d="M6525 1533 c-33 -25 -53 -43 -44 -40 11 4 21 -4 30 -21 8 -15 16 -29
19 -32 15 -13 48 -67 53 -85 2 -11 5 0 5 25 0 28 -2 38 -7 27 -6 -15 -10 -12
-24 18 -21 44 -14 99 16 133 29 31 20 27 -48 -25z"/>
<path d="M6225 1539 c-27 -17 -54 -36 -60 -42 -11 -11 58 28 96 55 40 28 17
20 -36 -13z"/>
<path d="M6721 1554 c0 -11 3 -14 6 -6 3 7 2 16 -1 19 -3 4 -6 -2 -5 -13z"/>
<path d="M6640 1490 c-7 -39 -10 -73 -8 -76 3 -2 10 28 17 67 6 40 10 74 7 76
-2 2 -9 -28 -16 -67z"/>
<path d="M6771 1544 c0 -11 3 -14 6 -6 3 7 2 16 -1 19 -3 4 -6 -2 -5 -13z"/>
<path d="M6592 1520 c0 -14 2 -19 5 -12 2 6 2 18 0 25 -3 6 -5 1 -5 -13z"/>
<path d="M4096 1521 c-26 -5 -28 -7 -13 -20 10 -7 17 -9 17 -4 0 6 19 15 43
20 35 9 37 11 12 11 -16 0 -43 -3 -59 -7z"/>
<path d="M3320 1506 c0 -2 8 -10 18 -17 15 -13 16 -12 3 4 -13 16 -21 21 -21
13z"/>
<path d="M6919 1497 c-8 -7 -19 -21 -23 -32 -7 -20 -8 -20 -22 -1 -14 19 -14
19 -14 -2 0 -12 -4 -22 -10 -22 -5 0 -10 5 -10 11 0 5 -4 7 -10 4 -6 -4 -5
-13 2 -25 9 -14 14 -16 20 -7 4 6 10 8 14 5 9 -9 78 57 73 70 -3 7 -9 7 -20
-1z"/>
<path d="M6950 1499 c0 -5 5 -7 10 -4 6 3 10 8 10 11 0 2 -4 4 -10 4 -5 0 -10
-5 -10 -11z"/>
<path d="M2220 1484 c0 -13 18 -39 24 -34 2 3 -2 14 -10 24 -8 11 -14 16 -14
10z"/>
<path d="M2890 1475 c-14 -8 -20 -14 -15 -14 6 0 21 6 35 14 14 8 21 14 15 14
-5 0 -21 -6 -35 -14z"/>
<path d="M6582 1470 c0 -14 2 -19 5 -12 2 6 2 18 0 25 -3 6 -5 1 -5 -13z"/>
<path d="M6043 1463 c-27 -18 -30 -33 -7 -33 9 0 12 -5 8 -12 -4 -7 -3 -8 5
-4 6 4 9 10 7 14 -2 4 3 16 11 27 15 19 15 19 8 -4 -5 -16 -4 -21 4 -17 15 10
14 46 -1 45 -7 0 -23 -7 -35 -16z"/>
<path d="M6703 1439 c-29 -22 -53 -42 -53 -45 0 -2 25 14 55 37 48 36 62 49
53 49 -2 0 -27 -18 -55 -41z"/>
<path d="M2320 1440 c12 -16 24 -30 26 -30 3 0 -4 14 -16 30 -12 17 -24 30
-26 30 -3 0 4 -13 16 -30z"/>
<path d="M3350 1466 c0 -2 8 -10 18 -17 15 -13 16 -12 3 4 -13 16 -21 21 -21
13z"/>
<path d="M3445 1445 c10 -16 53 -77 95 -135 43 -58 90 -124 105 -147 15 -24
29 -43 32 -43 7 0 -15 35 -73 115 -31 44 -80 112 -107 150 -53 76 -82 108 -52
60z"/>
<path d="M2830 1450 c-8 -5 -10 -10 -5 -10 6 0 17 5 25 10 8 5 11 10 5 10 -5
0 -17 -5 -25 -10z"/>
<path d="M5952 1438 c-7 -7 -12 -17 -12 -22 0 -6 8 -2 16 9 16 19 16 19 12 -7
-3 -16 -1 -26 6 -25 6 1 10 -4 8 -11 -1 -8 2 -11 8 -7 6 3 7 12 3 18 -8 13
-10 19 -12 42 -1 18 -13 19 -29 3z"/>
<path d="M2780 1430 c-8 -5 -10 -10 -5 -10 6 0 17 5 25 10 8 5 11 10 5 10 -5
0 -17 -5 -25 -10z"/>
<path d="M3018 1408 c-20 -17 -30 -46 -18 -53 6 -4 10 5 10 18 0 15 8 28 23
35 12 6 17 11 11 11 -5 1 -17 -5 -26 -11z"/>
<path d="M3390 1416 c0 -2 8 -10 18 -17 15 -13 16 -12 3 4 -13 16 -21 21 -21
13z"/>
<path d="M5505 1390 c10 -11 20 -20 23 -20 3 0 -3 9 -13 20 -10 11 -20 20 -23
20 -3 0 3 -9 13 -20z"/>
<path d="M6602 1385 c0 -16 2 -22 5 -12 2 9 2 23 0 30 -3 6 -5 -1 -5 -18z"/>
<path d="M6765 1380 c-7 -29 -9 -31 -16 -15 -6 15 -8 16 -8 4 -1 -25 9 -28 40
-11 28 17 40 42 18 42 -5 0 -7 -4 -4 -10 3 -5 2 -10 -4 -10 -5 0 -12 8 -14 18
-3 11 -7 5 -12 -18z"/>
<path d="M2380 1355 c17 -25 33 -45 36 -45 3 0 -9 20 -26 45 -17 25 -33 45
-36 45 -3 0 9 -20 26 -45z"/>
<path d="M2977 1393 c-4 -3 -7 -18 -7 -31 0 -32 14 -20 16 13 1 27 1 28 -9 18z"/>
<path d="M3025 1380 c-3 -5 -1 -10 4 -10 6 0 11 5 11 10 0 6 -2 10 -4 10 -3 0
-8 -4 -11 -10z"/>
<path d="M2914 1365 c-4 -8 -4 -21 -1 -29 4 -10 0 -12 -14 -9 -12 4 -26 -2
-35 -13 -15 -18 -15 -18 -11 4 3 12 1 20 -4 16 -5 -3 -9 -13 -10 -22 -1 -11
-4 -8 -10 8 -9 25 -9 25 -5 -3 2 -17 -1 -26 -8 -24 -6 2 -10 12 -10 21 2 21
-12 21 -20 0 -9 -24 -7 -46 4 -39 6 3 10 0 10 -7 0 -9 3 -9 10 2 5 8 10 11 10
5 0 -5 4 -4 8 2 4 7 18 14 30 16 12 2 25 6 28 10 4 4 15 7 24 7 13 0 17 8 16
35 -1 38 -4 43 -12 20z"/>
<path d="M2620 1360 c-9 -6 -10 -10 -3 -10 6 0 15 5 18 10 8 12 4 12 -15 0z"/>
<path d="M6721 1357 c-1 -10 -5 -16 -10 -13 -14 9 -34 -22 -26 -41 5 -12 9
-14 12 -5 3 6 11 12 18 12 19 0 23 11 14 40 -5 17 -7 19 -8 7z"/>
<path d="M2875 1350 c-3 -5 -2 -10 4 -10 5 0 13 5 16 10 3 6 2 10 -4 10 -5 0
-13 -4 -16 -10z"/>
<path d="M2575 1340 c-3 -6 1 -7 9 -4 18 7 21 14 7 14 -6 0 -13 -4 -16 -10z"/>
<path d="M2326 1317 c3 -10 9 -15 12 -12 3 3 0 11 -7 18 -10 9 -11 8 -5 -6z"/>
<path d="M5849 1289 l-24 -20 28 17 c15 9 27 18 27 20 0 8 -8 4 -31 -17z"/>
<path d="M6650 1303 c0 -14 19 -38 25 -32 8 8 -5 39 -16 39 -5 0 -9 -3 -9 -7z"/>
<path d="M2456 1248 c20 -32 39 -58 41 -58 7 0 -29 58 -55 88 -13 15 -6 1 14
-30z"/>
<path d="M2717 1293 c-4 -3 -7 -19 -7 -35 0 -15 -4 -28 -10 -28 -5 0 -7 13 -3
30 3 19 1 30 -6 30 -6 0 -11 -7 -11 -15 0 -8 -3 -14 -7 -14 -22 4 -33 -3 -33
-18 0 -16 2 -16 11 -3 9 13 10 13 6 0 -2 -8 -11 -14 -21 -12 -9 2 -16 -1 -16
-7 0 -5 -9 -7 -20 -4 -12 3 -20 0 -20 -6 0 -7 5 -9 10 -6 6 3 10 1 10 -4 0 -6
-6 -11 -14 -11 -8 0 -16 -6 -19 -12 -2 -7 -8 -10 -12 -6 -5 5 -3 19 3 33 7 15
8 25 2 25 -13 0 -24 -46 -16 -66 6 -16 8 -16 24 0 10 9 23 16 29 16 6 0 16 7
23 15 7 8 21 15 31 15 11 0 19 4 19 8 0 5 13 7 29 4 16 -2 32 1 35 7 4 6 3 11
-2 11 -10 0 -9 30 2 48 8 13 -6 17 -17 5z"/>
<path d="M3220 1290 c0 -5 14 -7 33 -3 45 8 47 13 4 13 -20 0 -37 -4 -37 -10z"/>
<path d="M5605 1280 c10 -11 20 -20 23 -20 3 0 -3 9 -13 20 -10 11 -20 20 -23
20 -3 0 3 -9 13 -20z"/>
<path d="M3234 1268 c-5 -7 -2 -9 9 -5 10 4 14 2 11 -6 -5 -14 34 -42 44 -32
4 4 -1 12 -11 19 -9 7 -17 18 -17 25 0 15 -27 14 -36 -1z"/>
<path d="M5760 1234 c-60 -40 -94 -69 -45 -39 82 50 115 75 102 75 -1 0 -27
-16 -57 -36z"/>
<path d="M2350 1236 c0 -2 7 -9 15 -16 13 -11 14 -10 9 4 -5 14 -24 23 -24 12z"/>
<path d="M3290 1202 c0 -17 28 -45 38 -38 9 5 8 12 -1 26 -12 20 -37 28 -37
12z"/>
<path d="M2516 1153 c60 -94 87 -133 92 -133 2 0 -4 12 -14 28 -60 93 -87 132
-92 132 -2 0 4 -12 14 -27z"/>
<path d="M5650 1159 c-22 -18 -22 -19 -3 -10 12 6 25 16 28 21 9 15 3 12 -25
-11z"/>
<path d="M2410 1161 c0 -6 4 -13 10 -16 6 -3 7 1 4 9 -7 18 -14 21 -14 7z"/>
<path d="M3335 1151 c-3 -6 -2 -11 4 -11 5 0 11 -8 13 -17 2 -10 6 -13 10 -8
3 6 0 18 -7 28 -8 12 -15 14 -20 8z"/>
<path d="M5599 1123 c-13 -16 -12 -17 4 -4 16 13 21 21 13 21 -2 0 -10 -8 -17
-17z"/>
<path d="M2885 1100 c10 -11 20 -20 23 -20 3 0 -3 9 -13 20 -10 11 -20 20 -23
20 -3 0 3 -9 13 -20z"/>
<path d="M3704 1073 c13 -21 69 -105 125 -188 97 -143 101 -150 79 -157 -22
-6 -21 -6 4 -7 20 -1 34 -11 53 -38 14 -21 25 -32 25 -26 0 7 -5 15 -10 18 -6
3 -8 17 -6 30 3 17 1 22 -9 19 -9 -4 -44 39 -103 128 -144 216 -173 258 -178
258 -2 0 6 -17 20 -37z"/>
<path d="M5545 1084 l-30 -26 33 22 c17 12 32 23 32 26 0 7 -4 5 -35 -22z"/>
<path d="M5780 1090 c-14 -11 -21 -20 -17 -20 5 0 20 9 34 20 14 11 22 20 17
20 -5 0 -20 -9 -34 -20z"/>
<path d="M2481 1070 c14 -31 19 -36 19 -24 0 6 -7 19 -16 30 -14 18 -14 18 -3
-6z"/>
<path d="M3396 1064 c-6 -16 12 -18 32 -5 11 6 9 9 -7 14 -12 3 -22 -1 -25 -9z"/>
<path d="M2925 1050 c10 -11 20 -20 23 -20 3 0 -3 9 -13 20 -10 11 -20 20 -23
20 -3 0 3 -9 13 -20z"/>
<path d="M5735 1060 c-4 -6 -10 -8 -15 -5 -5 3 -15 -15 -21 -40 -9 -34 -14
-43 -21 -33 -7 9 -8 3 -4 -17 l6 -30 -15 25 c-17 30 -18 28 -2 -31 l12 -47 19
79 c14 58 24 80 37 84 11 4 19 11 19 16 0 12 -7 12 -15 -1z"/>
<path d="M5755 1020 c-4 -23 -5 -43 -2 -46 2 -3 7 14 11 37 4 23 5 44 2 46 -2
2 -7 -14 -11 -37z"/>
<path d="M5800 1041 c5 -11 14 -23 20 -26 5 -3 7 -13 4 -23 -4 -12 -3 -13 3
-5 12 17 93 -97 92 -129 -1 -17 -3 -18 -6 -5 -2 9 -8 17 -13 17 -4 0 -6 -8 -3
-19 3 -10 0 -22 -6 -25 -6 -4 -11 -2 -11 3 0 6 -7 11 -15 11 -9 0 -15 -9 -15
-25 0 -29 -16 -34 -23 -7 -3 10 -5 6 -6 -10 0 -16 1 -28 4 -28 6 0 67 42 75
51 3 3 15 11 28 18 12 6 22 17 22 24 0 7 -4 6 -10 -3 -8 -13 -10 -12 -10 4 0
11 -11 33 -24 51 l-25 32 59 34 c32 18 57 35 55 38 -2 2 -27 -11 -55 -28 -28
-17 -54 -31 -58 -31 -4 0 -25 23 -46 50 -40 52 -54 64 -36 31z"/>
<path d="M3423 1043 c-7 -2 -13 -9 -13 -15 0 -6 6 -6 15 2 8 7 22 10 30 6 9
-3 13 -2 10 4 -7 11 -22 12 -42 3z"/>
<path d="M5013 1028 c-5 -13 -6 -34 -2 -48 l7 -25 1 26 c1 14 5 29 11 35 5 5
6 15 1 22 -5 9 -10 6 -18 -10z"/>
<path d="M5637 1010 c-8 -11 -17 -17 -20 -14 -4 4 -9 -1 -13 -10 -3 -9 -11
-13 -17 -9 -6 3 -7 1 -3 -5 4 -7 2 -12 -5 -12 -7 0 -10 -3 -6 -6 6 -7 117 62
117 73 0 4 -5 2 -12 -5 -15 -15 -32 -16 -23 -2 12 19 -4 10 -18 -10z"/>
<path d="M2974 987 c16 -20 30 -37 33 -37 7 0 -36 58 -49 66 -7 4 1 -9 16 -29z"/>
<path d="M3433 1012 c-8 -5 -8 -11 0 -23 10 -14 14 -14 25 -3 10 12 10 14 -3
14 -9 0 -13 5 -10 10 7 12 4 12 -12 2z"/>
<path d="M5412 996 c-46 -33 -53 -43 -14 -20 19 10 38 25 44 32 15 17 8 14
-30 -12z"/>
<path d="M4051 930 c28 -44 53 -80 56 -80 5 0 -27 54 -69 118 -50 73 -40 46
13 -38z"/>
<path d="M2532 980 c7 -10 14 -18 15 -16 6 6 -9 36 -18 36 -5 0 -4 -9 3 -20z"/>
<path d="M5727 975 c-3 -11 -8 -38 -11 -60 -5 -37 -5 -36 9 10 8 28 13 55 11
60 -1 6 -6 1 -9 -10z"/>
<path d="M2640 960 c6 -11 13 -20 16 -20 2 0 0 9 -6 20 -6 11 -13 20 -16 20
-2 0 0 -9 6 -20z"/>
<path d="M5789 979 c0 -2 -2 -20 -4 -39 l-4 -35 10 34 c6 18 8 36 5 39 -3 3
-6 3 -7 1z"/>
<path d="M5811 954 c0 -11 3 -14 6 -6 3 7 2 16 -1 19 -3 4 -6 -2 -5 -13z"/>
<path d="M5461 895 c-87 -59 -149 -109 -88 -72 31 20 32 16 13 -62 -25 -99
-27 -111 -18 -111 4 0 16 45 27 101 13 71 24 103 36 110 12 6 19 5 22 -4 4 -9
6 -9 6 1 1 13 31 49 31 37 0 -3 12 5 27 19 15 14 30 23 35 20 4 -3 8 2 8 10 0
9 -1 16 -2 15 -2 0 -45 -29 -97 -64z"/>
<path d="M3041 892 c17 -29 34 -52 36 -52 7 0 -41 81 -55 92 -7 7 1 -12 19
-40z"/>
<path d="M5833 925 c-16 -12 -22 -12 -26 -2 -4 8 -6 7 -6 -3 -1 -14 -61 -58
-69 -51 -2 1 -10 -6 -18 -16 -12 -16 -15 -16 -24 -3 -8 12 -10 10 -11 -10 0
-23 -1 -23 -9 -5 -8 19 -9 19 -9 -2 -1 -16 -13 -29 -40 -43 -22 -11 -43 -25
-47 -31 -8 -14 -10 -15 101 54 131 82 185 118 185 123 0 7 -4 5 -27 -11z"/>
<path d="M5570 915 c0 -8 2 -15 4 -15 2 0 6 7 10 15 3 8 1 15 -4 15 -6 0 -10
-7 -10 -15z"/>
<path d="M5611 904 c0 -11 3 -14 6 -6 3 7 2 16 -1 19 -3 4 -6 -2 -5 -13z"/>
<path d="M5648 900 c-7 -24 -3 -38 8 -28 3 4 4 17 2 30 l-3 23 -7 -25z"/>
<path d="M4254 894 c-18 -14 -18 -15 4 -4 12 6 22 13 22 15 0 8 -5 6 -26 -11z"/>
<path d="M5580 874 c-6 -14 -10 -30 -10 -35 0 -6 -4 -8 -9 -5 -5 3 -8 -12 -7
-34 0 -21 2 -37 4 -36 1 2 11 33 21 70 18 66 19 88 1 40z"/>
<path d="M2700 860 c6 -11 13 -20 16 -20 2 0 0 9 -6 20 -6 11 -13 20 -16 20
-2 0 0 -9 6 -20z"/>
<path d="M5205 854 l-30 -26 33 22 c17 12 32 23 32 26 0 7 -4 5 -35 -22z"/>
<path d="M5620 874 c0 -6 7 -19 16 -30 14 -18 14 -18 3 6 -14 31 -19 36 -19
24z"/>
<path d="M2620 843 c0 -6 8 -17 18 -24 16 -13 16 -13 2 6 -8 11 -16 22 -17 24
-2 2 -3 0 -3 -6z"/>
<path d="M4097 831 c18 -11 44 -38 59 -61 33 -49 44 -53 14 -5 -15 25 -18 35
-8 35 17 0 -40 36 -72 45 -21 6 -20 4 7 -14z"/>
<path d="M5481 834 c0 -11 3 -14 6 -6 3 7 2 16 -1 19 -3 4 -6 -2 -5 -13z"/>
<path d="M5591 824 c0 -11 3 -14 6 -6 3 7 2 16 -1 19 -3 4 -6 -2 -5 -13z"/>
<path d="M2730 810 c6 -11 13 -20 16 -20 2 0 0 9 -6 20 -6 11 -13 20 -16 20
-2 0 0 -9 6 -20z"/>
<path d="M3095 800 c9 -16 18 -30 21 -30 2 0 -2 14 -11 30 -9 17 -18 30 -21
30 -2 0 2 -13 11 -30z"/>
<path d="M5092 779 c-23 -17 -42 -33 -42 -36 0 -3 7 0 15 7 12 10 15 9 15 -5
0 -10 3 -15 7 -12 3 4 16 -1 27 -10 21 -18 21 -18 4 3 -24 28 -23 48 5 67 12
9 20 16 16 16 -3 1 -24 -13 -47 -30z"/>
<path d="M5290 779 c-57 -39 -71 -53 -46 -43 11 4 29 17 40 28 22 22 37 6 17
-18 -6 -7 -12 -33 -13 -58 -2 -34 3 -49 21 -67 19 -19 20 -25 9 -39 -11 -15
-11 -16 3 -4 14 11 20 9 39 -15 l22 -28 -17 29 c-17 28 -17 30 1 43 10 7 21
13 26 13 4 0 8 5 8 11 0 8 -5 7 -15 -1 -12 -10 -19 -10 -27 -2 -8 8 -7 33 5
93 10 45 15 84 13 86 -5 5 -36 -133 -36 -158 0 -10 -4 -20 -8 -23 -13 -8 -36
40 -26 55 4 7 9 33 10 57 2 24 8 50 15 58 17 20 10 17 -41 -17z m65 -159 c3
-5 1 -10 -4 -10 -6 0 -11 5 -11 10 0 6 2 10 4 10 3 0 8 -4 11 -10z"/>
<path d="M5432 780 c0 -14 2 -19 5 -12 2 6 2 18 0 25 -3 6 -5 1 -5 -13z"/>
<path d="M5790 775 c0 -14 4 -25 9 -25 4 0 6 11 3 25 -2 14 -6 25 -8 25 -2 0
-4 -11 -4 -25z"/>
<path d="M5411 774 c0 -11 3 -14 6 -6 3 7 2 16 -1 19 -3 4 -6 -2 -5 -13z"/>
<path d="M2670 760 c6 -11 13 -20 16 -20 2 0 0 9 -6 20 -6 11 -13 20 -16 20
-2 0 0 -9 6 -20z"/>
<path d="M2760 760 c6 -11 13 -20 16 -20 2 0 0 9 -6 20 -6 11 -13 20 -16 20
-2 0 0 -9 6 -20z"/>
<path d="M5341 764 c0 -11 3 -14 6 -6 3 7 2 16 -1 19 -3 4 -6 -2 -5 -13z"/>
<path d="M5760 763 c0 -13 5 -23 10 -23 13 0 13 11 0 30 -8 12 -10 11 -10 -7z"/>
<path d="M5740 733 c0 -21 3 -24 9 -14 5 8 7 20 4 28 -8 21 -13 15 -13 -14z"/>
<path d="M5421 734 c0 -11 3 -14 6 -6 3 7 2 16 -1 19 -3 4 -6 -2 -5 -13z"/>
<path d="M5490 704 c-64 -44 -65 -45 -72 -22 -5 19 -6 18 -7 -10 l-1 -33 75
51 c64 43 85 60 73 60 -2 0 -32 -21 -68 -46z"/>
<path d="M3140 720 c6 -11 13 -20 16 -20 2 0 0 9 -6 20 -6 11 -13 20 -16 20
-2 0 0 -9 6 -20z"/>
<path d="M5019 723 c-13 -16 -12 -17 4 -4 9 7 17 15 17 17 0 8 -8 3 -21 -13z"/>
<path d="M4210 680 c11 -22 23 -40 25 -40 3 0 -4 18 -15 40 -11 22 -23 40 -25
40 -3 0 4 -18 15 -40z"/>
<path d="M5251 709 c-1 -9 6 -19 14 -23 9 -3 15 0 15 10 0 8 -4 13 -9 10 -5
-4 -12 0 -14 6 -4 8 -6 7 -6 -3z"/>
<path d="M2706 697 c3 -10 9 -15 12 -12 3 3 0 11 -7 18 -10 9 -11 8 -5 -6z"/>
<path d="M2800 690 c6 -11 13 -20 16 -20 2 0 0 9 -6 20 -6 11 -13 20 -16 20
-2 0 0 -9 6 -20z"/>
<path d="M4979 693 c-13 -16 -12 -17 4 -4 16 13 21 21 13 21 -2 0 -10 -8 -17
-17z"/>
<path d="M5684 702 c4 -7 1 -12 -8 -12 -8 0 -16 -6 -18 -12 -3 -7 -15 -13 -29
-13 -17 0 -25 -6 -27 -23 l-3 -22 34 20 c48 29 72 56 56 66 -8 4 -10 3 -5 -4z"/>
<path d="M3998 693 c7 -3 16 -2 19 1 4 3 -2 6 -13 5 -11 0 -14 -3 -6 -6z"/>
<path d="M5175 650 c21 -22 41 -40 44 -40 3 0 -13 18 -34 40 -21 22 -41 40
-44 40 -3 0 13 -18 34 -40z"/>
<path d="M5322 670 c0 -14 2 -19 5 -12 2 6 2 18 0 25 -3 6 -5 1 -5 -13z"/>
<path d="M3185 640 c9 -16 18 -30 21 -30 2 0 -2 14 -11 30 -9 17 -18 30 -21
30 -2 0 2 -13 11 -30z"/>
<path d="M2750 620 c6 -11 13 -20 16 -20 2 0 0 9 -6 20 -6 11 -13 20 -16 20
-2 0 0 -9 6 -20z"/>
<path d="M2845 610 c9 -16 18 -30 21 -30 2 0 -2 14 -11 30 -9 17 -18 30 -21
30 -2 0 2 -13 11 -30z"/>
<path d="M5530 603 c-12 -16 -25 -28 -28 -27 -16 1 -91 -52 -92 -65 0 -11 -4
-10 -16 5 -8 10 -3 -4 13 -33 15 -29 29 -50 32 -48 2 3 -4 17 -14 32 -14 20
-15 28 -5 31 7 3 21 13 31 23 11 11 19 16 19 13 0 -4 7 -1 15 6 8 7 12 17 9
22 -3 5 0 8 7 7 17 -3 69 18 69 27 0 3 -7 4 -15 0 -13 -4 -14 -2 -5 14 15 28
5 25 -20 -7z"/>
<path d="M3225 570 c9 -16 18 -30 21 -30 2 0 -2 14 -11 30 -9 17 -18 30 -21
30 -2 0 2 -13 11 -30z"/>
<path d="M3264 555 c8 -25 10 -45 5 -45 -5 0 -9 5 -9 12 0 6 -3 8 -7 5 -3 -4
-12 -2 -19 4 -8 7 -14 7 -19 -1 -3 -5 0 -10 8 -10 9 0 34 -24 58 -52 60 -74
63 -77 44 -40 -18 37 -14 52 10 32 9 -7 18 -10 21 -7 3 3 -8 13 -24 23 -29 16
-62 70 -62 99 0 7 -4 16 -10 20 -5 3 -3 -15 4 -40z m30 -71 c5 -14 4 -15 -9
-4 -17 14 -19 20 -6 20 5 0 12 -7 15 -16z"/>
<path d="M5252 575 c23 -24 30 -27 40 -16 11 11 10 13 0 6 -8 -4 -24 2 -40 16
l-27 23 27 -29z"/>
<path d="M2791 553 c7 -12 15 -20 18 -17 3 2 -3 12 -13 22 -17 16 -18 16 -5
-5z"/>
<path d="M2905 500 c9 -16 18 -30 21 -30 2 0 -2 14 -11 30 -9 17 -18 30 -21
30 -2 0 2 -13 11 -30z"/>
<path d="M2820 504 c0 -5 7 -18 15 -28 8 -11 15 -16 15 -10 0 5 -7 18 -15 28
-8 11 -15 16 -15 10z"/>
<path d="M2955 410 c9 -16 18 -30 21 -30 2 0 -2 14 -11 30 -9 17 -18 30 -21
30 -2 0 2 -13 11 -30z"/>
<path d="M2876 417 c3 -10 9 -15 12 -12 3 3 0 11 -7 18 -10 9 -11 8 -5 -6z"/>
<path d="M2966 267 c3 -10 9 -15 12 -12 3 3 0 11 -7 18 -10 9 -11 8 -5 -6z"/>
</g>
</svg>
